<svg width="630" height="390" viewBox="0 0 630 390" fill="none" xmlns="http://www.w3.org/2000/svg">
<g>
<path d="M551.93 92.0002C495.554 -19.5108 359.514 -15.6279 280.025 30.0214C225.866 61.1243 206.109 53.3017 167.619 53.9133C129.13 54.5249 55.2832 92.523 74.9295 190.134C98.2241 305.864 221.479 327.233 283.725 296.541C332.433 272.523 354.498 301.08 394.482 315.889C458.219 339.494 495.578 316.186 537.782 253.205C589.358 176.238 551.93 92.0002 551.93 92.0002Z" fill="#FFE6F4"/>
<path d="M187.864 265.949H49.8256V328.198H187.864V265.949Z" fill="#1B2957"/>
<path d="M565.347 265.949H427.308V328.198H565.347V265.949Z" fill="#1B2957"/>
<path d="M151.98 358.618C169.717 340.885 169.717 312.136 151.98 294.403C134.243 276.671 105.487 276.671 87.75 294.403C70.0134 312.136 70.0134 340.885 87.75 358.618C105.487 376.35 134.243 376.35 151.98 358.618Z" fill="#212D61"/>
<path d="M119.865 354.695C135.434 354.695 148.056 342.076 148.056 326.511C148.056 310.945 135.434 298.327 119.865 298.327C104.295 298.327 91.6737 310.945 91.6737 326.511C91.6737 342.076 104.295 354.695 119.865 354.695Z" fill="#303E7A"/>
<path d="M134.741 341.383C142.956 333.169 142.956 319.852 134.741 311.638C126.525 303.425 113.205 303.425 104.989 311.638C96.7735 319.852 96.7735 333.169 104.989 341.383C113.205 349.596 126.525 349.596 134.741 341.383Z" fill="#38488A"/>
<path d="M529.42 358.617C547.157 340.885 547.157 312.135 529.42 294.403C511.684 276.671 482.927 276.671 465.19 294.403C447.454 312.135 447.454 340.885 465.19 358.617C482.927 376.35 511.684 376.35 529.42 358.617Z" fill="#212D61"/>
<path d="M497.306 354.695C512.875 354.695 525.497 342.076 525.497 326.511C525.497 310.945 512.875 298.327 497.306 298.327C481.736 298.327 469.115 310.945 469.115 326.511C469.115 342.076 481.736 354.695 497.306 354.695Z" fill="#303E7A"/>
<path d="M512.181 341.382C520.397 333.169 520.397 319.852 512.181 311.638C503.965 303.424 490.645 303.424 482.429 311.638C474.214 319.852 474.214 333.169 482.429 341.382C490.645 349.596 503.965 349.596 512.181 341.382Z" fill="#38488A"/>
<path d="M525.496 119.831C525.496 119.831 534.803 120.63 545.919 124.022C554.594 126.669 566.644 128.884 569.079 133.069C571.656 137.497 564.481 141.039 561.595 141.752L525.496 119.832V119.831Z" fill="#4F77E3"/>
<path d="M617.755 278.399V253.773C617.755 246.941 618.61 241.675 607.931 216.196C597.253 190.717 567.639 147.445 558.526 138.335C549.414 129.225 531.617 119.831 524.356 119.831H325.456C255.977 119.831 248.901 122.559 227.216 133.78C198.883 148.441 179.798 178.46 164.854 185.877C144.779 195.842 105.626 201.393 69.6038 209.363C33.5821 217.334 23.6165 219.185 18.6325 226.017C4.82247 246.373 7.66908 278.399 7.66908 278.399C7.66908 321.956 19.486 330.069 19.486 330.069H40.6999C40.6999 330.069 49.4013 330.108 66.0974 330.169C68.0991 330.177 69.7124 328.549 69.7111 326.548C69.7111 326.535 69.7111 326.523 69.7111 326.511C69.7111 299.311 92.6554 275.907 119.862 275.907C147.069 275.907 169.124 299.311 169.124 326.511C169.124 326.641 169.124 326.772 169.123 326.903C169.107 328.895 170.716 330.521 172.71 330.527C253.271 330.776 357.071 331.04 443.673 331.077C446.096 331.077 448.049 329.105 448.04 326.682C448.04 326.625 448.04 326.569 448.04 326.511C448.04 299.311 470.095 277.261 497.302 277.261C531.386 277.261 546.564 299.311 546.564 326.511C546.564 326.525 546.564 326.54 546.564 326.556C546.561 328.985 548.519 330.961 550.949 330.951C588.796 330.807 612.734 330.532 613.197 330.069C615.475 327.792 629.998 308.434 629.998 295.196C629.998 281.958 617.753 278.399 617.753 278.399H617.755Z" fill="#4669C9"/>
<path d="M169.27 292.49C161.581 246.514 169.314 197.769 169.314 197.769C167.386 198.706 165.186 199.034 163.018 198.65C155.847 197.384 148.691 196.65 143.378 196.235L134.8 195.728C115.375 200.425 91.892 204.431 69.6063 209.363C33.5846 217.334 23.6189 219.185 18.6349 226.017C4.82491 246.373 7.67152 278.399 7.67152 278.399C7.67152 321.956 19.4884 330.485 19.4884 330.485H40.7023C40.7023 330.485 50.9097 330.523 67.6057 330.585C69.6075 330.592 71.2207 328.549 71.2195 326.546C71.2195 326.534 71.2195 326.522 71.2195 326.509C71.2195 299.309 92.6579 278.689 119.865 278.689C147.072 278.689 168.04 299.309 168.04 326.509C168.04 326.64 168.04 326.771 168.039 326.902C168.023 328.894 169.511 330.519 171.506 330.526C172.427 330.528 174.558 330.532 175.486 330.534C168.602 304.81 169.27 292.489 169.27 292.489V292.49Z" fill="#486DD0"/>
<path d="M104.345 228.916L136.215 224.233C136.215 224.233 150.695 222.426 157.777 218.863C164.283 215.59 165.356 214.822 167.563 212.436C168.433 203.318 169.314 197.769 169.314 197.769C167.386 198.706 165.186 199.034 163.018 198.65C155.847 197.384 148.691 196.65 143.378 196.235L134.8 195.728C115.375 200.425 91.892 204.431 69.6063 209.363C35.7726 216.851 24.9263 218.938 19.6044 224.826C20.5306 226.258 22.0107 227.983 24.1654 228.96C28.3132 230.842 35.7245 231.233 41.546 231.153C47.3687 231.073 54.7689 232.842 57.19 235.4L57.6833 235.601C57.6833 235.601 58.9512 235.372 67.8845 234.134C76.8165 232.896 104.344 228.916 104.344 228.916H104.345Z" fill="#4F77E3"/>
<path d="M163.018 198.652C166.355 199.241 169.769 198.149 172.15 195.736C181.889 185.865 207.146 161.847 217.678 150.861C224.105 144.155 224.396 139.302 223.026 136.096C196.982 151.394 179.05 178.831 164.857 185.876C157.202 189.675 146.772 192.833 134.801 195.728C134.801 195.728 148.886 196.155 163.019 198.652H163.018Z" fill="#3F5A99"/>
<path d="M164.712 185.062C158.148 188.32 149.686 191.92 139.819 194.473C145.139 194.823 153.621 195.564 162.121 197.066C165.41 197.647 168.774 196.57 171.118 194.193C180.717 184.468 205.603 160.8 215.98 149.975C221.408 144.312 222.392 139.99 221.714 136.881C195.427 152.177 178.667 178.136 164.712 185.062Z" fill="#B1D3FC"/>
<path d="M168.813 320.948C169.019 322.775 169.128 324.63 169.128 326.511C169.128 326.641 169.128 326.772 169.127 326.903C169.111 328.895 170.72 330.521 172.713 330.527C253.274 330.776 357.074 331.04 443.677 331.077C446.1 331.077 448.052 329.105 448.044 326.682C448.044 326.625 448.044 326.569 448.044 326.511C448.044 324.629 448.154 322.775 448.358 320.948H168.813Z" fill="#3E5CB1"/>
<path d="M168.041 326.511C168.041 326.641 168.041 326.772 168.04 326.903C168.024 328.895 169.513 330.521 171.507 330.527C172.428 330.529 174.56 330.533 175.487 330.535C168.604 304.811 169.271 292.49 169.271 292.49C168.553 288.198 167.97 283.882 167.502 279.585H129.507C151.872 283.816 168.041 302.625 168.041 326.511Z" fill="#4F77E3"/>
<path d="M110.205 279.585H7.67773C7.89111 322.106 19.4897 330.485 19.4897 330.485H40.7036C40.7036 330.485 50.9109 330.523 67.607 330.585C69.6088 330.592 71.222 328.549 71.2208 326.546V326.509C71.2208 302.624 87.7528 283.815 110.205 279.584V279.585Z" fill="#4F77E3"/>
<path d="M39.4073 278.684H9.36616C9.36616 278.684 8.62738 279.346 7.68262 280.458C8.04769 322.212 19.4909 330.069 19.4909 330.069H40.7048C40.7048 330.069 42.4611 330.077 45.769 330.089C45.769 330.076 52.6487 316.831 54.072 307.721C55.4953 298.611 54.3569 286.939 50.2276 282.242C47.1035 278.689 39.4073 278.684 39.4073 278.684Z" fill="#3E5CB1"/>
<path d="M116.457 227.562C125.309 226.256 132.953 225.128 138.719 224.304C155.145 221.958 164.631 216.569 167.495 213.156C167.545 212.61 167.597 212.075 167.648 211.553C167.428 211.826 167.257 212.053 167.215 212.116C165.076 215.338 155.69 221.017 138.598 223.459C132.831 224.282 125.185 225.41 116.332 226.716C98.3363 229.371 75.9396 232.677 61.4352 234.56C49.1311 236.158 42.3057 240.66 38.7474 244.154C34.8586 247.973 33.9212 251.384 33.8842 251.528C33.8238 251.756 33.9595 251.989 34.1877 252.05C34.2247 252.059 34.2617 252.064 34.2974 252.064C34.4861 252.064 34.6588 251.939 34.7094 251.748C34.718 251.714 35.6455 248.379 39.3912 244.719C42.857 241.333 49.5147 236.969 61.545 235.407C76.0555 233.523 98.4571 230.217 116.457 227.561V227.562Z" fill="#3E5CB1"/>
<path d="M96.8526 255.339C126.876 253.706 160.853 251.856 165.872 249.884C165.869 249.588 165.868 249.292 165.867 248.998C165.808 248.998 165.748 249.01 165.69 249.036C161.482 250.967 125.621 252.919 96.8057 254.487C77.7021 255.527 61.2033 256.425 54.8885 257.194C46.3191 258.237 40.5494 262.067 37.2181 265.095C33.6018 268.384 32.0355 271.389 31.9701 271.515C31.8628 271.724 31.9454 271.982 32.1551 272.089C32.218 272.121 32.2846 272.136 32.35 272.136C32.5054 272.136 32.6546 272.051 32.7298 271.904C32.7459 271.875 34.3073 268.887 37.8212 265.701C41.0575 262.766 46.6644 259.055 54.9921 258.041C61.2786 257.275 77.7638 256.379 96.8513 255.339H96.8526Z" fill="#3E5CB1"/>
<path d="M108.176 280.012C109.677 279.664 111.207 279.383 112.762 279.171C112.092 279.162 111.288 279.157 110.325 279.157H41.9913C38.0321 279.157 38.0926 279.348 38.0926 279.584C38.0926 279.819 41.7544 280.011 41.9913 280.011H108.176V280.012Z" fill="#3E5CB1"/>
<path d="M34.4232 230.467C34.3665 230.467 34.311 230.467 34.253 230.467C22.092 230.467 20.2001 224.615 20.1754 224.533C20.1544 224.457 20.1125 224.394 20.0607 224.344C19.8461 224.561 19.6389 224.783 19.4403 225.01C19.9176 226.212 22.631 231.321 34.253 231.321C34.3098 231.321 34.3653 231.321 34.422 231.321C53.0286 231.321 57.2479 236.01 57.2874 236.054C57.3713 236.157 57.5365 235.806 57.6155 235.741C57.7968 235.591 58.1261 235.724 57.9756 235.543C57.8029 235.335 53.5478 230.466 34.4232 230.466V230.467Z" fill="#3E5CB1"/>
<path d="M48.7883 245.803H66.5068C68.611 245.803 70.3192 247.511 70.3192 249.614V249.82C70.3192 251.924 68.611 253.632 66.5068 253.632H48.7883C46.6842 253.632 44.976 251.924 44.976 249.82V249.614C44.976 247.511 46.6842 245.803 48.7883 245.803Z" fill="#E0E7FB"/>
<path d="M40.3446 293.883C40.8959 295.281 41.3375 296.774 41.6754 298.327H51.0885C51.4424 296.944 51.2685 295.027 50.7592 293.883H40.3446Z" fill="#4E5AA1"/>
<path d="M16.3569 332.204C16.3569 332.204 16.6418 336.759 20.7712 339.178C24.9005 341.597 37.9988 342.878 40.5618 342.452C43.1247 342.025 42.2231 330.074 42.2231 330.074C35.2632 333.243 16.3569 332.204 16.3569 332.204Z" fill="#D9E2FA"/>
<path d="M5.82145 278.684C5.82145 278.684 0.410666 283.524 0.126992 289.075C-0.157916 294.626 0.126992 307.436 0.126992 311.423C0.126992 315.409 5.82145 327.507 16.3581 332.205C16.3581 332.205 16.643 336.76 20.7723 339.179C24.9016 341.599 38 342.88 40.5629 342.453C43.1259 342.026 42.2243 330.076 42.2243 330.076C42.2243 330.076 49.1052 316.831 50.5285 307.721C51.9518 298.611 50.8134 286.939 46.6841 282.242C43.56 278.689 35.8638 278.684 35.8638 278.684H5.82145Z" fill="#E9EFFF"/>
<path d="M37.8594 289.287C43.3578 296.736 43.7697 310.582 40.2373 319.397C35.7948 330.485 10.1481 328.202 10.1222 328.199C11.9612 329.782 14.0419 331.172 16.3581 332.204C16.3581 332.204 16.643 336.759 20.7723 339.178C24.9017 341.597 38 342.878 40.563 342.452C43.1259 342.025 42.2243 330.074 42.2243 330.074C42.2243 330.074 49.1052 316.83 50.5285 307.72C51.9519 298.61 50.8135 286.938 46.6841 282.241C43.56 278.688 35.8638 278.683 35.8638 278.683H5.87451C5.87451 278.683 31.1684 280.221 37.8594 289.286V289.287Z" fill="#E2E8F7"/>
<path d="M23.7608 271.708H36.8592C36.8592 271.708 41.4153 271.708 41.4153 275.552C41.4153 278.969 35.8626 278.684 35.8626 278.684H16.7837V271.71H23.7596L23.7608 271.708Z" fill="#F2BD6D"/>
<path d="M5.87447 264.798C5.87447 264.798 2.36801 272.136 5.87447 278.684H16.7848C16.7848 278.684 23.0491 275.837 23.6189 271.71C24.1887 267.581 21.315 265.549 21.315 265.549L5.8757 264.8L5.87447 264.798Z" fill="#D65B56"/>
<path d="M9.48704 249.466C9.48704 249.466 6.39129 248.792 4.96675 252.777C3.54344 256.762 2.40381 264.449 7.24478 265.303C12.0857 266.157 24.6143 267.01 31.1635 261.886C37.7126 256.761 35.8614 252.206 34.2962 251.638C32.7298 251.068 18.8471 252.703 9.48704 249.466Z" fill="#F2BD6D"/>
<path d="M617.755 278.399V253.773C617.755 246.941 618.61 241.675 607.931 216.196C597.253 190.717 567.638 147.445 558.526 138.335C555.998 135.807 552.801 133.259 549.346 130.894C546.541 128.974 543.22 127.944 539.821 127.944H448.089C448.089 127.944 435.311 127.326 440.181 140.256L454.314 167.216L472.361 202.355C472.361 202.355 478.978 215.055 481.188 223.47C483.398 231.885 483.899 239.361 485.023 254.642C485.935 267.05 486.488 275.629 486.663 278.416C490.017 277.678 493.496 277.839 497.068 277.847C523.965 277.902 545.699 299.817 545.699 326.708V327.405C545.699 329.831 547.686 331.809 550.114 331.799C587.943 331.655 612.735 331.38 613.198 330.918C615.476 328.64 629.999 308.433 629.999 295.196C629.999 281.959 617.754 278.399 617.754 278.399H617.755Z" fill="#4669C9"/>
<path d="M545.701 326.708V327.405C545.701 329.831 547.689 331.809 550.115 331.799C587.945 331.655 612.737 331.38 613.199 330.918C615.477 328.64 630 308.433 630 295.196C630 291.209 628.889 288.101 627.337 285.704H523.467C536.855 294.425 545.702 309.554 545.702 326.709L545.701 326.708Z" fill="#3E5CB1"/>
<path d="M617.755 278.399V277.972H603.751C602.139 277.972 600.514 278.331 599.052 279.009L594.922 280.927C588.654 283.837 581.688 285.374 574.777 285.374H522.955C523.368 285.653 523.854 285.937 524.254 286.229H574.777C581.811 286.229 588.9 284.664 595.281 281.702L599.411 279.785C600.762 279.159 602.263 278.827 603.751 278.827H618.912C618.197 278.528 617.755 278.4 617.755 278.4V278.399Z" fill="#3E5CB1"/>
<path d="M601.525 278.826C601.514 278.826 601.503 278.826 601.493 278.824C601.258 278.807 601.081 278.601 601.1 278.367C601.116 278.16 602.633 257.405 600.106 238.314C598.017 222.546 590.214 212.717 590.135 212.62C589.987 212.436 590.015 212.167 590.199 212.019C590.383 211.871 590.652 211.9 590.8 212.083C590.88 212.182 598.832 222.184 600.952 238.202C603.491 257.383 601.967 278.223 601.951 278.431C601.933 278.655 601.746 278.826 601.525 278.826Z" fill="#3E5CB1"/>
<path d="M617.375 244.948H601.293C601.058 244.948 600.867 245.139 600.867 245.375C600.867 245.611 601.058 245.802 601.293 245.802H617.489C617.455 245.524 617.417 245.239 617.376 244.947L617.375 244.948Z" fill="#3E5CB1"/>
<path d="M617.755 261.697H601.998C601.762 261.697 601.571 261.888 601.571 262.124C601.571 262.359 601.762 262.55 601.998 262.55H617.755V261.696V261.697Z" fill="#3E5CB1"/>
<path d="M523.764 244.474H498.611C497.89 244.474 497.306 245.058 497.306 245.778V252.089C497.306 252.81 497.89 253.394 498.611 253.394H523.764C524.485 253.394 525.069 252.81 525.069 252.089V245.778C525.069 245.058 524.485 244.474 523.764 244.474Z" fill="#3E5CB1"/>
<path d="M607.931 216.196C606.741 213.357 605.317 210.297 603.711 207.088L489.337 200.897L496.856 212.725C498.512 215.33 501.384 216.907 504.472 216.907H608.229C608.13 216.67 608.032 216.436 607.931 216.196Z" fill="#3E5CB1"/>
<path d="M596.755 224.267H507.275C504.908 224.267 502.75 223.066 501.504 221.055L495.965 212.119C495.841 211.918 495.902 211.656 496.103 211.531C496.304 211.407 496.567 211.468 496.692 211.669L502.231 220.605C503.321 222.364 505.207 223.414 507.276 223.414H596.756C596.991 223.414 597.183 223.605 597.183 223.841C597.183 224.076 596.991 224.267 596.756 224.267H596.755Z" fill="#3E5CB1"/>
<path d="M509.456 212.352H606.24C595.58 189.12 572.405 154.661 561.594 141.751H462.903C459.372 141.751 457.163 145.569 458.923 148.629C467.066 162.781 479.791 184.802 489.336 200.897C493.548 208 501.196 212.352 509.454 212.352H509.456Z" fill="#3E5CB1"/>
<path d="M512.042 208.351H597.856C588.405 187.753 567.857 157.2 558.271 145.753H470.769C467.638 145.753 465.678 149.139 467.24 151.852C474.46 164.4 485.742 183.925 494.205 198.194C497.94 204.492 504.721 208.351 512.043 208.351H512.042Z" fill="#B1D3FC"/>
<path d="M570.606 208.351L587.036 188.056C578.727 173.948 568.85 159.392 561.91 150.325L514.933 208.351H570.606Z" fill="#C7DDFF"/>
<path d="M514.482 145.752L484.878 182.319C488.132 187.897 491.331 193.348 494.205 198.193C495.061 199.636 496.077 200.948 497.222 202.117L542.854 145.751H514.482V145.752Z" fill="#C7DDFF"/>
<path d="M470.769 145.752C467.638 145.752 465.678 149.138 467.24 151.851C468.25 153.605 469.342 155.502 470.492 157.497L480 145.752H470.769Z" fill="#C7DDFF"/>
<path d="M549.842 141.751C549.842 141.751 574.901 173.493 590.467 212.352C590.467 212.352 591.72 213.719 596.984 213.719C604.76 213.719 606.24 212.352 606.24 212.352C595.58 189.12 572.406 154.661 561.594 141.751C561.594 141.751 557.619 140.224 555.201 140.224C552.784 140.224 549.841 141.751 549.841 141.751H549.842Z" fill="#3E5CB1"/>
<path d="M553.494 146.62C557.464 146.059 561.509 146.055 565.479 146.62C561.509 147.185 557.464 147.181 553.494 146.62Z" fill="#3955A3"/>
<path d="M557.796 152.596C561.766 152.034 565.811 152.031 569.781 152.596C565.811 153.16 561.766 153.157 557.796 152.596Z" fill="#3955A3"/>
<path d="M561.763 158.571C565.878 158.01 570.064 158.006 574.179 158.571C570.064 159.136 565.878 159.131 561.763 158.571Z" fill="#3955A3"/>
<path d="M565.626 164.363C569.74 163.803 573.927 163.798 578.042 164.363C573.927 164.927 569.741 164.924 565.626 164.363Z" fill="#3955A3"/>
<path d="M569.781 171.276C574.078 170.717 578.443 170.712 582.74 171.276C578.443 171.841 574.078 171.837 569.781 171.276Z" fill="#3955A3"/>
<path d="M573.871 178.272C578.298 177.712 582.792 177.707 587.218 178.272C582.792 178.836 578.297 178.833 573.871 178.272Z" fill="#3955A3"/>
<path d="M577.845 185.474C582.428 184.913 587.075 184.909 591.657 185.474C587.074 186.039 582.427 186.035 577.845 185.474Z" fill="#3955A3"/>
<path d="M581.442 192.407C586.193 191.848 591.005 191.843 595.756 192.407C591.006 192.972 586.193 192.967 581.442 192.407Z" fill="#3955A3"/>
<path d="M585.026 199.811C589.966 199.251 594.966 199.246 599.907 199.811C594.967 200.376 589.967 200.371 585.026 199.811Z" fill="#3955A3"/>
<path d="M587.915 206.233C593.017 205.673 598.179 205.668 603.282 206.233C598.179 206.797 593.019 206.792 587.915 206.233Z" fill="#3955A3"/>
<path d="M600.28 224.668C600.994 226.377 602.548 230.702 603.229 237.338C603.259 237.642 603.517 237.874 603.824 237.874H615.608C616.342 237.874 616.879 237.181 616.694 236.471C616.022 233.893 614.426 228.312 612.31 224.422C612.114 224.063 611.735 223.841 611.327 223.841H600.833C600.407 223.841 600.115 224.275 600.281 224.668H600.28Z" fill="#F2BD6D"/>
<path d="M330.939 229.445H306.489C304.591 229.445 303.053 230.983 303.053 232.88V239.205C303.053 241.102 304.591 242.64 306.489 242.64H330.939C332.837 242.64 334.376 241.102 334.376 239.205V232.88C334.376 230.983 332.837 229.445 330.939 229.445Z" fill="#3E5CB1"/>
<path d="M303.053 237.326V239.204C303.053 239.382 303.067 239.557 303.092 239.729H334.335C334.361 239.557 334.374 239.382 334.374 239.204V237.326H303.052H303.053Z" fill="#4669C9"/>
<path d="M463.255 229.445H438.805C436.907 229.445 435.369 230.983 435.369 232.88V239.205C435.369 241.102 436.907 242.64 438.805 242.64H463.255C465.153 242.64 466.691 241.102 466.691 239.205V232.88C466.691 230.983 465.153 229.445 463.255 229.445Z" fill="#3E5CB1"/>
<path d="M435.369 237.326V239.204C435.369 239.382 435.382 239.557 435.408 239.729H466.65C466.676 239.557 466.69 239.382 466.69 239.204V237.326H435.367H435.369Z" fill="#4669C9"/>
<path d="M184.678 207.882L181.767 212.219C180.624 214.338 182.158 216.908 184.566 216.908H327.935C329.509 216.908 330.817 215.696 330.937 214.127L331.407 207.94L184.679 207.882H184.678Z" fill="#3E5CB1"/>
<path d="M327.421 224.383H178.957C178.002 224.383 177.143 223.893 176.658 223.071C176.172 222.25 176.158 221.26 176.619 220.425C176.625 220.414 176.632 220.404 176.638 220.394L183.016 210.444C183.177 210.191 183.514 210.117 183.767 210.279C184.02 210.441 184.094 210.778 183.931 211.03L177.564 220.965C177.299 221.457 177.31 222.037 177.595 222.519C177.882 223.006 178.392 223.297 178.957 223.297H327.421C328.479 223.297 329.373 222.504 329.5 221.454L330.432 213.571C330.468 213.272 330.737 213.059 331.037 213.095C331.335 213.13 331.549 213.4 331.513 213.699L330.58 221.583C330.387 223.181 329.029 224.385 327.421 224.385V224.383Z" fill="#3E5CB1"/>
<path d="M322.281 141.751H268.833C255.108 141.751 241.852 146.697 231.452 155.651C210.088 174.047 191.787 198.068 184.677 207.882C183.328 209.746 184.658 212.352 186.96 212.352H326.523C329.128 212.352 331.279 210.318 331.423 207.717L334.368 154.522C334.752 147.586 329.23 141.749 322.281 141.749V141.751Z" fill="#3E5CB1"/>
<path d="M318.343 143.843H268.858C256.151 143.843 243.877 148.423 234.25 156.713C214.469 173.744 197.526 195.985 190.944 205.071C189.694 206.796 190.926 209.209 193.056 209.209H322.269C324.68 209.209 326.672 207.325 326.805 204.918L329.532 155.668C329.887 149.246 324.775 143.844 318.342 143.844L318.343 143.843Z" fill="#B1D3FC"/>
<path d="M246.158 148.962L197.383 209.208H225.755L278.674 143.842H268.86C260.947 143.842 253.202 145.619 246.159 148.962H246.158Z" fill="#C7DDFF"/>
<path d="M304.185 209.209L328.212 179.531L329.533 155.668C329.889 149.246 324.776 143.844 318.343 143.844H301.431L248.512 209.21H304.185V209.209Z" fill="#C7DDFF"/>
<path d="M353.989 207.882L353.922 213.256C353.897 215.265 355.519 216.907 357.528 216.907H453.077C454.806 216.907 456.003 215.178 455.392 213.562L453.273 207.94L353.989 207.882Z" fill="#3E5CB1"/>
<path d="M456.142 224.267H356.864C355.005 224.267 353.494 222.756 353.494 220.899V211.895C353.494 211.659 353.685 211.468 353.921 211.468C354.156 211.468 354.347 211.659 354.347 211.895V220.899C354.347 222.286 355.476 223.414 356.864 223.414H456.142C456.753 223.414 457.3 223.124 457.644 222.62C457.989 222.116 458.058 221.499 457.833 220.931L454.994 213.719C454.908 213.499 455.016 213.251 455.234 213.165C455.455 213.079 455.702 213.187 455.788 213.405L458.627 220.618C458.952 221.441 458.847 222.369 458.349 223.1C457.85 223.831 457.025 224.267 456.14 224.267H456.142Z" fill="#3E5CB1"/>
<path d="M359.16 212.352H450.051C452.466 212.352 454.136 209.934 453.273 207.679C445.782 188.098 428.522 159.584 420.978 147.503C418.744 143.926 414.824 141.751 410.605 141.751H361.359C357.257 141.751 353.932 145.075 353.932 149.176V207.125C353.932 210.012 356.273 212.352 359.16 212.352Z" fill="#3E5CB1"/>
<path d="M362.974 207.845H442.925C445.049 207.845 446.518 205.718 445.76 203.734C439.17 186.51 423.987 161.428 417.35 150.8C415.386 147.653 411.937 145.741 408.227 145.741H364.908C361.299 145.741 358.374 148.666 358.374 152.272V203.247C358.374 205.786 360.434 207.845 362.974 207.845Z" fill="#B1D3FC"/>
<path d="M426.602 207.845L440.164 191.093C436.913 184.442 433.12 177.47 429.453 171.041L399.656 207.845H426.601H426.602Z" fill="#C7DDFF"/>
<path d="M417.35 150.8C415.386 147.653 411.937 145.741 408.226 145.741H377.377L358.372 169.216V203.249C358.372 205.787 360.43 207.847 362.971 207.847H379.969L421.153 156.975C419.711 154.604 418.418 152.514 417.348 150.801L417.35 150.8Z" fill="#C7DDFF"/>
<path d="M184.295 248.934H465.051C467.293 248.934 469.115 250.754 469.115 252.997V255.027C469.115 259.812 465.23 263.697 460.443 263.697H189.361C184.957 263.697 181.381 260.123 181.381 255.719V251.846C181.381 250.238 182.686 248.934 184.295 248.934Z" fill="#4F77E3"/>
<path d="M181.406 256.316C181.712 260.443 185.155 263.698 189.361 263.698H460.443C464.794 263.698 468.397 260.494 469.018 256.316H181.406Z" fill="#486DD0"/>
<path d="M175.358 288.333C175.335 290.156 175.466 292.89 176.175 295.88C176.515 297.312 177.786 298.328 179.258 298.328H412.307C413.994 298.328 415.569 297.484 416.503 296.08C417.609 294.416 418.922 291.834 419.526 288.341C419.734 287.139 418.806 286.038 417.586 286.038H177.678C176.406 286.038 175.372 287.06 175.358 288.333Z" fill="#486DD0"/>
<path d="M169.27 291.947C169.24 291.947 169.21 291.95 169.182 291.955C169.212 292.134 169.24 292.312 169.27 292.49C169.27 292.49 169.26 292.672 169.255 293.033C169.27 293.034 461.177 293.034 461.177 293.034C461.518 292.667 461.864 292.304 462.216 291.947H169.27Z" fill="#3E5CB1"/>
<path d="M340.641 133.154C340.34 133.154 340.097 133.397 340.097 133.698V330.95C340.46 330.95 340.822 330.951 341.185 330.952V133.698C341.185 133.397 340.942 133.154 340.641 133.154Z" fill="#3E5CB1"/>
<path d="M483.178 229.647C481.663 220.187 476.098 208.776 476.045 208.67C469.692 195.157 446.098 150.304 439.017 136.879C437.425 133.858 434.339 132.002 430.933 132.002C430.873 132.002 430.813 132.002 430.752 132.003C418.745 132.235 402.948 132.361 386.225 132.494C329.404 132.947 258.688 133.51 245.782 138.506C231.723 143.95 212.1 164.767 201.653 176.692C191.405 188.391 170.971 208.293 167.65 211.515C167.596 212.066 167.542 212.632 167.488 213.212C167.731 212.963 167.902 212.785 167.946 212.742C168.179 212.518 191.321 190.136 202.471 177.408C212.851 165.559 232.331 144.88 246.174 139.52C258.894 134.595 329.5 134.033 386.233 133.58C402.959 133.447 418.759 133.321 430.772 133.09C430.825 133.09 430.878 133.088 430.931 133.088C433.931 133.088 436.65 134.723 438.052 137.386C445.129 150.805 468.714 195.639 475.062 209.14C475.118 209.254 480.612 220.52 482.101 229.817C483.598 239.174 486.155 278.041 486.181 278.432C486.181 278.45 486.183 278.479 486.185 278.517C486.542 278.435 486.901 278.357 487.263 278.283C487.133 276.326 484.65 238.851 483.176 229.646L483.178 229.647Z" fill="#3E5CB1"/>
<path d="M188.396 199.025C188.471 190.235 188.264 174.293 206.452 171.479C206.452 171.479 221.377 169.908 227.192 184.263C232.217 196.668 227.897 276.622 226.301 284.887C224.705 293.153 204.022 295.312 199.606 282.178C195.189 269.045 188.319 207.816 188.394 199.025H188.396Z" fill="#DE9681"/>
<path d="M211.044 168.839C211.044 168.839 230.371 168.448 230.762 189.722C231.153 210.996 229.981 270.329 229.004 278.33C228.028 286.333 226.271 293.359 214.168 293.359C202.065 293.359 196.793 283.014 195.817 276.574C194.841 270.134 186.837 211.776 187.227 194.015C187.618 176.254 197.379 167.667 211.044 168.839Z" fill="#966363"/>
<path d="M202.14 195.65C202.14 195.65 203.202 210.092 205.327 210.73C207.451 211.367 214.887 203.933 216.587 200.536C216.587 200.536 211.701 210.943 210.426 214.34C209.152 217.738 205.965 255.33 203.841 268.922C203.211 272.957 201.812 279.446 200.157 286.575C197.632 283.342 196.268 279.543 195.818 276.574C194.881 270.386 187.456 216.278 187.22 196.289C196.444 194.056 202.141 195.65 202.141 195.65H202.14Z" fill="#825656"/>
<path d="M226.489 283.517C226.489 283.517 214.385 351.795 213.409 359.136C211.986 369.848 200.88 375.164 199.564 365.859C198.248 356.554 195.692 337.528 194.818 327.533C193.943 317.538 195.112 286.217 198.318 275.113C201.523 264.009 225.982 268.964 226.489 283.517Z" fill="#DE9681"/>
<path d="M212.756 361.911C212.756 361.911 212.354 366.859 217.447 368.469C222.541 370.08 240.566 370.539 242.397 375.23C244.229 379.922 232.84 381.179 228.221 381.64C223.603 382.1 218.139 380.78 212.218 381.535C206.295 382.288 199.178 382.875 197.786 379.301C196.395 375.726 200.764 368.257 199.573 360.065C198.383 351.872 211.993 351.92 212.757 361.911H212.756Z" fill="#DE9681"/>
<path d="M244.947 378.324C244.947 378.324 245.141 380.536 245.012 381.057C244.881 381.577 242.539 383.529 236.487 384.895C230.435 386.261 217.615 385.286 214.101 385.286C210.587 385.286 197.637 385.417 195.49 384.571C194.969 384.18 195.945 381.447 195.945 381.447L244.945 378.324H244.947Z" fill="#E1DAEA"/>
<path d="M210.067 365.637C210.067 365.637 210.961 363.866 212.214 363.49C213.515 363.099 214.622 363.23 215.013 363.621C215.404 364.012 216.834 366.614 217.42 367.069C218.006 367.524 234.079 369.801 238.829 371.167C243.58 372.534 245.597 375.201 244.947 378.324C244.491 379.365 239.935 381.772 234.34 382.488C228.744 383.205 214.232 382.748 208.635 382.619C203.039 382.488 197.702 382.164 196.271 381.773C194.839 381.382 196.336 375.722 196.922 373.641C197.508 371.559 198.743 367.005 198.809 365.834C198.874 364.663 199.46 365.119 199.655 365.249C199.85 365.379 200.827 366.224 202.257 366.55C203.689 366.875 210.066 365.638 210.066 365.638L210.067 365.637Z" fill="#EDC4B2"/>
<path d="M210.067 365.637C210.067 365.637 210.327 370.191 214.427 371.297C218.527 372.403 230.566 374.484 230.566 374.484C230.566 374.484 219.243 373.509 214.167 371.947C212.54 371.361 210.262 370.255 210.067 365.636V365.637Z" fill="#E8B199"/>
<path d="M244.947 378.324C244.491 379.365 239.935 381.772 234.34 382.488C233.586 382.584 232.668 382.66 231.635 382.717C229.734 374.69 232.684 371.444 234.623 370.219C236.355 370.558 237.84 370.883 238.83 371.167C243.581 372.534 245.598 375.201 244.948 378.324H244.947Z" fill="white"/>
<path d="M228.808 279.306C228.808 279.306 228.417 284.381 226.27 297.653C224.122 310.925 215.337 358.938 215.337 360.108C215.337 361.278 216.704 361.474 216.704 363.231C216.704 364.988 218.07 366.55 217.875 367.135C217.681 367.721 213.386 371.234 208.895 371.624C204.406 372.014 199.134 370.843 197.377 370.843C195.619 370.843 194.644 370.257 194.644 369.282C194.644 368.307 193.668 364.403 193.863 360.304C194.058 356.205 192.302 325.953 192.691 312.682C193.082 299.41 195.619 277.161 196.986 269.939C198.352 262.718 230.173 257.643 228.807 279.308L228.808 279.306Z" fill="#966363"/>
<path d="M203.84 268.922C202.251 279.086 195.793 304.804 192.636 317.133C192.636 315.508 192.653 314.01 192.693 312.681C193.084 299.409 195.621 277.16 196.987 269.938C197.388 267.822 200.402 265.891 204.429 264.762C204.226 266.311 204.028 267.712 203.839 268.922H203.84Z" fill="#825656"/>
<path d="M228.878 157.37C228.878 157.37 228.323 168.832 228.141 175.698C227.958 182.563 229.726 199.221 211.675 209.727C195.4 219.199 177.235 213.568 173.538 209.535C167.372 202.807 163.627 189.849 165.519 179.794C167.411 169.741 171.506 159.478 170.046 142.943C168.585 126.408 230.833 127.05 228.877 157.37H228.878Z" fill="#DE9681"/>
<path d="M230.371 167.863C230.371 167.863 229.785 177.622 229.395 181.72C229.004 185.819 229.004 198.505 214.559 209.045C200.112 219.584 184.105 216.071 177.467 213.144C170.829 210.217 165.558 199.092 163.996 190.504C162.434 181.917 166.729 167.668 167.12 162.594C167.12 162.594 204.407 169.035 230.372 167.865L230.371 167.863Z" fill="#966363"/>
<path d="M175.798 200.536C191.518 192.678 202.14 195.652 202.14 195.652C202.14 195.652 203.202 210.093 205.327 210.731C207.451 211.368 214.887 203.934 216.587 200.537C216.587 200.537 213.808 206.456 211.895 210.823C198.191 219.158 183.699 215.894 177.467 213.145C174.532 211.85 171.866 208.955 169.668 205.384C171.455 203.335 173.494 201.69 175.799 200.538L175.798 200.536Z" fill="#825656"/>
<path d="M160.087 201.046C160.857 192.289 161.909 176.38 180.264 175.011C180.264 175.011 195.267 174.623 199.93 189.394C203.959 202.156 193.336 281.52 191.092 289.633C188.847 297.747 168.06 298.266 164.695 284.824C161.329 271.383 159.318 209.804 160.087 201.046Z" fill="#DE9681"/>
<path d="M182.932 171.961C182.932 171.961 203.576 173.863 202.698 197.284C201.819 220.705 198.598 254.518 196.401 271.352C194.205 288.186 194.644 298.725 178.538 296.822C162.433 294.92 161.408 283.356 160.383 277.5C159.358 271.645 157.894 222.9 158.187 207.238C158.479 191.575 160.529 170.057 182.93 171.96L182.932 171.961Z" fill="#966363"/>
<path d="M168.234 191.279C169.463 191.484 178.757 191.715 178.757 191.715C178.757 191.715 178.61 180.13 174.246 172.565C159.96 176.312 158.436 193.9 158.187 207.239C158.082 212.87 158.203 222.777 158.451 233.429C159.755 234.317 161.805 235.692 162.082 235.761C162.491 235.863 163.517 235.146 163.517 235.146C163.517 235.146 165.055 236.068 165.875 235.658C166.696 235.249 167.105 233.403 167.105 233.403C167.105 233.403 168.232 233.506 168.643 232.07C169.053 230.635 168.028 225.101 166.696 222.333C165.362 219.566 165.773 219.77 165.466 216.081C165.159 212.392 164.646 208.394 165.568 208.804C166.491 209.213 166.491 211.161 167.722 214.339C168.951 217.516 170.182 218.132 170.9 218.234C171.618 218.336 171.925 217.107 171.105 214.442C170.285 211.778 171.105 209.625 169.669 206.14C168.234 202.655 166.593 200.298 166.696 198.043C166.798 195.787 167.003 191.073 168.234 191.278V191.279Z" fill="#825656"/>
<path d="M191.386 288.281C191.386 288.281 173.926 355.389 172.374 362.631C170.11 373.197 158.617 377.619 158.04 368.24C157.463 358.86 156.418 339.692 156.337 329.659C156.255 319.625 159.895 288.494 163.968 277.679C168.04 266.864 192.032 273.733 191.386 288.282V288.281Z" fill="#DE9681"/>
<path d="M171.503 365.345C171.503 365.345 170.711 370.245 175.662 372.254C180.613 374.261 198.545 376.142 199.999 380.964C201.454 385.785 190.001 386.139 185.361 386.234C180.721 386.329 175.38 384.582 169.416 384.865C163.453 385.149 156.311 385.173 155.207 381.498C154.102 377.825 159.048 370.725 158.507 362.463C157.968 354.203 171.532 355.325 171.503 365.345Z" fill="#DE9681"/>
<path d="M202.388 383.073V386.196C202.388 386.196 202.257 387.497 198.549 388.734C194.84 389.969 185.924 390.36 180.197 389.645C174.471 388.93 163.799 388.604 160.741 388.473C157.682 388.343 153.648 387.562 153.127 386.847C152.933 386.522 153.322 383.334 153.322 383.334L202.388 383.074V383.073Z" fill="#E1DAEA"/>
<path d="M166.207 368.045C166.207 368.045 167.183 365.508 169.396 365.183C171.608 364.858 172.584 365.444 172.78 366.224C172.975 367.005 174.212 369.997 177.074 371.103C179.937 372.209 193.799 374.487 197.117 376.373C200.129 378.085 202.712 380.341 202.388 383.074C202.128 384.049 197.963 387.367 191.912 387.758C185.86 388.149 175.644 386.652 171.739 386.457C167.834 386.263 155.276 386.392 153.324 383.334C153.063 382.748 153.909 377.023 154.885 374.487C155.861 371.949 156.577 366.42 156.772 365.834C156.967 365.249 157.748 365.64 157.944 366.095C158.139 366.55 160.482 367.786 162.109 368.047C163.736 368.307 165.753 367.656 166.208 368.047L166.207 368.045Z" fill="#EDC4B2"/>
<path d="M166.207 368.045C166.207 368.045 167.024 372.155 167.899 373.673C169.006 375.592 188.398 379.106 188.398 379.106C188.398 379.106 175.808 377.016 171.089 376.048C166.014 375.007 165.818 373.706 166.209 368.045H166.207Z" fill="#E8B199"/>
<path d="M171.544 383.724C171.544 384.334 172.04 384.83 172.65 384.83C173.261 384.83 173.757 384.334 173.757 383.724C173.757 383.113 173.261 382.618 172.65 382.618C172.04 382.618 171.544 383.113 171.544 383.724Z" fill="#E8B199"/>
<path d="M166.664 384.375C167.275 384.375 167.77 383.88 167.77 383.269C167.77 382.658 167.275 382.163 166.664 382.163C166.053 382.163 165.557 382.658 165.557 383.269C165.557 383.88 166.053 384.375 166.664 384.375Z" fill="#E8B199"/>
<path d="M188.729 387.813C187.808 379.005 191.37 375.958 193.241 374.979C194.937 375.451 196.327 375.923 197.118 376.372C200.13 378.084 202.714 380.34 202.389 383.073C202.129 384.048 197.964 387.366 191.912 387.757C190.944 387.82 189.868 387.833 188.729 387.813Z" fill="white"/>
<path d="M194.498 284.674C194.498 284.674 191.277 299.605 187.324 315.414C183.371 331.223 177.074 354.351 175.903 359.035C174.731 363.72 175.903 364.744 175.317 366.5C175.025 367.086 176.342 368.696 176.342 369.428C176.342 370.159 174.731 370.452 173.267 371.624C171.803 372.795 168.436 374.99 165.946 375.722C163.457 376.455 160.235 375.137 157.6 374.551C154.964 373.965 152.768 373.526 152.328 372.941C151.889 372.355 151.742 366.353 151.889 360.644C152.036 354.935 153.5 318.195 155.403 305.166C157.306 292.139 160.42 277.629 161.699 271.938C164.921 257.592 200.206 259.788 194.496 284.673L194.498 284.674Z" fill="#966363"/>
<path d="M211.167 91.6389C211.167 91.6389 221.853 84.2122 230.212 98.1273C238.57 112.042 247.796 139.663 250.405 148.245C253.017 156.829 242.972 161.386 236.76 154.836C230.547 148.286 215.111 118.565 211.58 111.253C208.049 103.941 205.893 95.7722 211.166 91.6389H211.167Z" fill="#DE9681"/>
<path d="M233.591 100.822C237.397 107.848 246.768 129.951 246.768 129.951C246.768 129.951 239.741 138.735 227.588 142.54C227.588 142.54 216.167 125.414 211.336 113.996C206.504 102.577 205.816 92.3714 211.628 90.1358C221.145 86.4761 229.784 93.7956 233.591 100.822Z" fill="#EDC4B2"/>
<path d="M211.336 113.996C211.008 113.219 210.699 112.448 210.41 111.686C218.401 102.992 229.615 99.7969 229.615 99.7969C229.615 99.7969 232.872 107.16 234.005 111.69C235.139 116.22 235.28 130.663 236.838 132.079C238.29 133.398 242.445 126.974 243.236 121.738C245.275 126.422 246.771 129.95 246.771 129.95C246.771 129.95 239.743 138.733 227.591 142.539C227.591 142.539 216.17 125.413 211.339 113.994L211.336 113.996Z" fill="#E8B199"/>
<path d="M227.716 144.43C230.587 143.549 240.543 139.995 248.395 131.149C248.698 130.807 248.748 130.309 248.517 129.915L247.481 128.139C247.122 127.524 246.271 127.435 245.789 127.96C238.388 136.031 229.304 139.532 226.017 140.597C225.377 140.804 225.093 141.551 225.432 142.132L226.494 143.952C226.741 144.376 227.247 144.573 227.715 144.429L227.716 144.43Z" fill="#EDCCBE"/>
<path d="M235.373 152.378C236.586 155.674 239.71 157.88 243.217 158.058C252.735 158.539 284.266 159.973 293.106 158.361C303.557 156.455 300.326 150.377 291.884 149.166C283.441 147.955 270.178 145.531 264.029 144.373C254.023 142.488 245.431 139.693 240.045 140.944C236.275 141.82 233.559 147.445 235.374 152.38L235.373 152.378Z" fill="#DE9681"/>
<path d="M284.043 158.728C279.117 158.711 280.676 149.434 284.72 148.808C284.784 148.798 294.801 148.636 297.599 147.408C300.544 146.116 301.416 144.822 305.56 145.513C309.085 146.1 311.458 146.475 312.161 147.661C312.906 148.916 310.628 149.191 308.697 148.894C306.604 148.572 301.89 149.381 303.427 151.048C304.65 152.375 309.278 156.049 310.996 156.891C313.799 158.265 323.668 159.322 321.942 162.942C321.942 162.942 323.359 164.164 321.637 165.434C321.637 165.434 322.516 167.608 319.19 167.735C319.19 167.735 319.116 169.49 317.12 169.463C315.767 169.444 310.602 168.73 307.448 168.031C304.293 167.332 296.684 160.213 292.646 158.816C291.358 158.371 285.169 158.73 284.043 158.726V158.728Z" fill="#DE9681"/>
<path d="M303.363 149.904C301.781 151.436 300.884 153.143 298.724 153.995C301.214 154.264 302.19 151.394 303.363 149.904Z" fill="#D38475"/>
<path d="M306.086 163.788C304.39 159.592 301.393 154.55 296.611 153.646C301.114 155.268 303.705 159.901 306.086 163.788Z" fill="#D38475"/>
<path d="M319.19 167.738C318.639 166.808 317.443 166.731 316.497 166.514C313.565 165.826 310.516 165.418 307.672 164.511C310.14 166.35 313.539 166.13 316.451 166.77C317.417 166.851 318.604 167.069 319.19 167.738Z" fill="#C97565"/>
<path d="M321.637 165.435C320.038 163.834 317.619 163.72 315.541 163.169C313.468 162.585 311.071 162.525 309.168 161.79C309.982 162.561 311.154 162.821 312.229 163.017C315.319 163.774 319.06 163.624 321.637 165.434V165.435Z" fill="#C97565"/>
<path d="M321.942 162.943C318.856 160.183 314.232 160.536 310.547 159.192C313.82 161.551 318.824 160.409 321.942 162.943Z" fill="#C97565"/>
<path d="M310.461 158.908C310.438 159.941 309.793 160.804 309.209 161.608C309.145 162.678 308.324 163.564 307.672 164.363C307.702 164.855 307.265 165.231 306.925 165.52C307.205 165.144 307.477 164.7 307.396 164.243C307.878 163.419 308.654 162.502 308.713 161.54C309.094 160.662 310.038 159.903 310.149 158.877C310.366 158.402 310.706 157.943 310.749 157.396C310.834 157.911 310.672 158.435 310.462 158.908H310.461Z" fill="#D38475"/>
<path d="M214.841 87.5427C220.917 89.322 224.282 90.7302 227.224 94.8437C232.39 102.063 231.364 114.24 230.716 128.334C230.332 136.684 229.539 153.969 228.817 158.403C228.094 162.836 208.418 169.798 196.373 167.985C187.138 166.596 173.07 167.434 171.868 158.979C170.451 149.006 168.796 128.346 167.729 119.283C165.894 103.682 165.401 88.5082 180.533 86.1814C188.843 84.9027 205.755 84.8842 214.84 87.5439L214.841 87.5427Z" fill="#DE9681"/>
<path d="M211.178 75.9864C211.178 75.9864 210.866 84.9939 212.864 89.1222C214.861 93.2505 208.023 95.8178 203.581 95.7783C199.138 95.7389 192.313 93.253 191.516 87.9003C190.719 82.5475 191.775 82.4304 192.292 67.948C192.699 56.5656 212.422 64.7754 211.178 75.9864Z" fill="#DE9681"/>
<path d="M212.238 87.4379C210.938 82.9495 211.178 75.9864 211.178 75.9864C212.166 67.0837 200.056 61.3857 195.268 65.1145C195.073 66.3845 194.982 67.8124 195.019 69.4228C195.038 70.26 203.19 85.9964 212.237 87.4379H212.238Z" fill="#D38475"/>
<path d="M208.391 30.8649C208.391 30.8649 223.343 31.6688 225.659 44.415C227.975 57.1612 227.211 79.9741 217.582 82.7831C209.96 85.0075 198.259 77.2219 193.324 69.3266C188.13 61.0182 186.286 50.4274 189.343 42.4199C192.019 35.4087 197.122 30.2594 208.391 30.8649Z" fill="#DE9681"/>
<path d="M200.014 51.7345C200.014 51.7345 200.306 61.493 200.989 66.3722C201.673 71.2514 204.114 74.8618 206.162 75.8384C208.212 76.8138 209.74 75.5733 210.813 73.0357C211.886 70.498 213.073 69.0541 215.806 68.8593C218.539 68.6645 221.831 68.5153 223.17 69.6386C223.966 70.3044 225.325 70.2699 225.813 69.0985C225.813 69.0985 225.769 70.6596 225.366 72.7533C225.002 74.6374 224.674 77.0777 224.304 78.4636C223.523 81.3909 222.262 84.6931 216.113 84.6931C209.963 84.6931 203.723 80.5228 201.77 79.0592C199.818 77.5956 199.134 77.1073 199.329 74.9605C199.524 72.8137 198.698 61.1452 197.82 56.7543C196.941 52.3633 200.013 51.7357 200.013 51.7357L200.014 51.7345Z" fill="#192B4F"/>
<path d="M218.757 69.921C218.757 69.921 218.946 70.2748 220.268 70.2514C220.762 70.2428 222.464 70.6645 223.172 70.8766C223.879 71.0887 223.986 71.5844 223.879 72.8236C223.773 74.0628 223.03 75.053 222.392 75.9026C221.754 76.7521 221.294 77.8138 220.799 77.9199C220.303 78.0259 219.949 75.4771 219.949 75.4771C219.949 75.4771 219.029 75.4772 218.639 75.4414C218.249 75.4056 218.603 77.0345 218.391 77.7781C218.179 78.5216 215.771 78.5216 214.354 77.5302C212.938 76.5388 211.805 75.159 211.805 74.1676C211.805 73.1762 212.442 71.1232 213.186 70.9111C213.93 70.699 217.128 70.8408 218.756 69.9197L218.757 69.921Z" fill="#DE9681"/>
<path d="M215.732 64.9579C215.732 64.9579 215.045 63.3475 211.163 63.3512C208.007 63.3537 205.624 63.784 205.613 65.7495C205.353 68.2958 217.317 68.9209 215.732 64.9579Z" fill="#D38475"/>
<path d="M226.034 67.7643C224.145 67.5263 222.132 67.0738 221.98 66.0084C221.822 64.1342 224.178 63.5522 226.535 63.3635C226.418 64.8605 226.252 66.3364 226.034 67.7656V67.7643Z" fill="#D38475"/>
<path d="M210.977 59.6076C210.95 60.5793 211.569 61.3845 212.359 61.4066C213.149 61.4288 213.811 60.6594 213.839 59.6878C213.866 58.7161 213.247 57.9109 212.457 57.8887C211.667 57.8665 211.004 58.636 210.977 59.6076Z" fill="#121D3F"/>
<path d="M221.613 59.5114C221.585 60.4831 222.205 61.2883 222.994 61.3105C223.785 61.3327 224.447 60.5632 224.474 59.5916C224.501 58.6199 223.882 57.8147 223.093 57.7925C222.302 57.7703 221.64 58.5398 221.613 59.5114Z" fill="#121D3F"/>
<path d="M218.327 68.2859C219.238 68.3143 220.519 68.2169 221.007 67.5189C221.192 67.2551 221.344 66.805 221.016 66.1552C219.728 63.6027 219.138 59.5792 219.133 59.5398C219.094 59.2611 218.835 59.0675 218.557 59.1082C218.279 59.1477 218.085 59.4066 218.126 59.684C218.15 59.8554 218.744 63.911 220.108 66.6139C220.136 66.6706 220.225 66.8605 220.174 66.9345C219.955 67.2489 218.662 67.334 217.639 67.2131C217.359 67.1811 217.106 67.3796 217.072 67.6595C217.039 67.9382 217.239 68.1922 217.518 68.2255C217.695 68.2464 217.985 68.2748 218.328 68.2859H218.327Z" fill="#C97565"/>
<path d="M222.693 71.355C219.175 71.4611 215.123 71.5437 213.588 71.5967C213.353 71.6053 213.231 71.8803 213.382 72.0603C214.075 72.884 215.792 74.8742 219.277 74.4525C221.442 74.1898 222.378 72.5425 222.927 71.8063C223.069 71.6164 222.929 71.3488 222.693 71.355Z" fill="white"/>
<path d="M220.688 75.8606C220.781 75.8298 220.863 75.7632 220.908 75.667C220.997 75.4821 220.918 75.2601 220.733 75.1713C220.672 75.1418 219.205 74.4586 217.624 75.2897C217.443 75.3859 217.372 75.6103 217.467 75.7916C217.562 75.9728 217.788 76.0431 217.969 75.9482C219.224 75.2885 220.399 75.8372 220.41 75.8421C220.5 75.8853 220.598 75.889 220.685 75.8606H220.688Z" fill="#D38475"/>
<path d="M216.048 54.9885C216.048 54.9885 216.464 55.7037 215.695 56.1156C214.925 56.5274 210.465 56.3018 208.705 56.3646C206.945 56.4275 207.144 55.4139 209.209 55.0847C211.003 54.7986 215.951 54.3967 216.048 54.9898V54.9885Z" fill="#192B4F"/>
<path d="M220.766 55.1365C220.766 55.1365 220.375 55.8665 221.159 56.25C221.943 56.6334 225.285 56.3166 227.047 56.3166C228.808 56.3166 228.574 55.3116 226.498 55.0551C224.695 54.8332 220.84 54.5409 220.765 55.1365H220.766Z" fill="#192B4F"/>
<path d="M226.102 47.2473C226.102 47.2473 226.563 46.6604 227.149 45.1968C227.735 43.7331 228.321 41.7812 227.638 40.5123C226.954 39.2435 227.345 38.0721 226.563 36.9993C225.783 35.9253 224.025 36.6085 223.049 35.0474C222.074 33.4863 219.438 31.3396 214.264 29.0942C209.091 26.85 203.526 26.6539 197.476 31.4358C193.473 32.2163 188.984 34.1682 186.446 40.4137C183.907 46.6592 184.201 52.8072 184.787 55.2462C185.373 57.6865 186.251 61.1008 186.934 63.5411C187.617 65.9813 188.495 65.7852 188.495 68.7125C188.495 71.6398 189.443 75.3674 191.882 75.7583C192.371 75.5635 192.693 73.9827 192.595 73.1035C192.498 72.2255 193.571 70.8593 193.669 70.0788C193.767 69.2983 195.3 69.2008 195.719 65.9801C196.139 62.7593 196.891 57.9775 197.867 57.2944C198.842 56.6112 199.624 56.4164 199.721 54.5619C199.819 52.7074 201.283 49.6826 201.869 48.9021C202.455 48.1216 204.797 46.7554 204.797 45.3891C204.797 45.3891 206.261 45.1943 207.53 45.6814C208.799 46.1696 211.044 47.0476 213.386 44.6074C213.386 44.6074 214.069 45.0956 214.947 44.5099C215.826 43.9242 216.802 43.7294 218.072 44.4125C219.341 45.0956 221.488 45.3879 222.855 45.0956C224.221 44.8034 223.929 45.5839 224.807 45.7788C225.685 45.9736 226.102 47.2437 226.102 47.2437V47.2473Z" fill="#192B4F"/>
<path d="M198.589 61.3351C198.589 61.3351 198.694 54.6223 194.691 54.4953C190.687 54.3695 190.595 59.9886 193.103 63.6866C194.508 65.7569 198.464 68.408 198.589 61.3351Z" fill="#DE9681"/>
<path d="M193.445 59.2142C194.232 59.1489 194.908 59.4929 195.397 59.8665C195.18 59.1181 194.762 58.4239 193.976 58.0663C193.774 57.9738 193.684 57.7358 193.777 57.5323C193.868 57.3301 194.105 57.2401 194.311 57.3326C197.114 58.6063 196.33 62.7877 196.295 62.9652C196.252 63.1835 196.041 63.3253 195.823 63.2834C195.819 63.2834 195.815 63.2821 195.812 63.2809C195.6 63.2328 195.464 63.0257 195.505 62.8111C195.508 62.7951 195.64 62.0824 195.605 61.1995C195.598 61.1921 195.588 61.1872 195.582 61.1785C195.572 61.1662 194.654 59.9245 193.513 60.0182C193.289 60.0355 193.096 59.8715 193.077 59.6495C193.059 59.4276 193.224 59.2327 193.446 59.2142H193.445Z" fill="#C97565"/>
<path d="M212.082 86.8608C212.082 86.8608 212.096 86.936 212.132 87.063C212.346 87.8411 212.896 90.6956 209.58 91.745C205.298 93.1001 193.315 88.2924 191.266 85.3651L191.227 84.6252C191.227 84.6252 181.664 85.4021 178.198 85.841C174.732 86.28 169.023 88.6709 167.119 94.5268C165.216 100.381 167.851 135.513 167.119 145.759C166.386 156.006 160.383 178.988 159.505 187.184C159.505 187.184 177.807 193.039 194.937 193.332C212.068 193.624 225.392 192.893 234.03 188.501C234.03 188.501 231.688 168.301 231.688 159.81C231.688 151.319 232.518 116.823 232.224 109.944C231.931 103.065 229.247 95.9399 227.441 93.2074C227.441 93.2074 222.185 88.4699 212.082 86.8596V86.8608Z" fill="#EDC4B2"/>
<path d="M207.259 99.5466C207.259 99.5466 208.011 93.602 209.856 93.2604C211.701 92.9188 216.007 97.0866 216.007 97.0866C216.007 97.0866 218.225 94.221 216.677 87.8756C215.278 87.4761 213.746 87.1259 212.082 86.8608C212.082 86.8608 212.096 86.936 212.132 87.063C212.346 87.8411 212.896 90.6956 209.58 91.745C205.298 93.1001 193.315 88.2924 191.266 85.3651L191.227 84.6252C191.227 84.6252 188.811 84.8213 185.967 85.0728C186.596 86.0951 193.409 96.6859 207.26 99.5466H207.259Z" fill="#E8B199"/>
<path d="M159.505 187.185C159.505 187.185 167.961 189.891 178.757 191.716C173.641 189.569 168.733 186.954 168.234 184.67C167.157 179.75 167.772 164.222 169.156 159.149C170.54 154.075 172.232 145.466 172.232 145.466C172.232 145.466 174.539 146.234 175.308 145.159C176.077 144.082 177.615 141.47 177 140.239C176.385 139.01 178.23 136.395 180.999 127.939C183.767 119.483 187.15 104.109 187.15 104.109C187.15 104.109 177.203 109.809 166.641 117.162C166.969 128.345 167.502 140.425 167.121 145.761C166.389 156.007 160.386 178.989 159.508 187.185H159.505Z" fill="#E8B199"/>
<path d="M207.703 91.8596C207.703 91.8596 208.523 103.954 208.523 120.969L212.008 120.559C212.008 120.559 211.863 101.872 211.166 91.6389C211.166 91.6389 209.035 91.0409 207.701 91.8609L207.703 91.8596Z" fill="#EDCCBE"/>
<path d="M211.167 91.6389C211.167 91.6389 209.036 91.0409 207.703 91.8609C207.703 91.8609 207.81 93.4355 207.946 96.2469C208.365 94.8141 208.99 93.4219 209.855 93.2616C210.243 93.1901 210.742 93.3184 211.286 93.565C211.247 92.8967 211.208 92.253 211.166 91.6389H211.167Z" fill="#EDC4B2"/>
<path d="M185.918 84.9927C185.918 84.9927 188.224 83.7116 191.3 82.9434C191.3 82.9434 197.349 91.655 209.395 90.7326C210.472 90.4762 211.9 88.7807 212.082 86.862L211.976 86.4329L211.878 85.9693C211.878 85.9693 214.622 86.428 216.673 87.8633C216.673 87.8633 216.929 91.9114 216.109 95.1408C216.109 95.1408 211.526 91.8486 209.65 92.015C207.774 92.1815 206.113 97.8573 206.113 97.8573C206.113 97.8573 196.527 97.6008 185.917 84.9939L185.918 84.9927Z" fill="#EDCCBE"/>
<path d="M176.999 88.6919C176.999 88.6919 190.339 94.5428 184.817 109.807C179.296 125.071 164.608 148.034 159.595 155.475C154.583 162.916 142.078 157.243 143.238 148.291C144.399 139.339 158.595 108.744 162.04 101.391C165.484 94.0385 170.462 87.211 176.998 88.6907L176.999 88.6919Z" fill="#DE9681"/>
<path d="M178.54 87.396C178.54 87.396 191.226 93.0508 186.067 109.96C180.908 126.869 172.716 140.327 172.716 140.327C172.716 140.327 154.806 136.995 148.988 128.26C148.988 128.26 158.153 104.936 165.808 93.3665C168.323 89.3183 174.454 85.4822 178.539 87.3947L178.54 87.396Z" fill="#EDC4B2"/>
<path d="M150.185 126.824C153.092 129.59 161.063 136.177 172.949 138.303C173.752 138.446 174.181 139.333 173.797 140.053L172.754 142.012C172.501 142.487 171.966 142.737 171.44 142.624C168.088 141.905 156.028 138.827 147.724 130.32C147.384 129.971 147.287 129.45 147.481 129.001L148.251 127.22C148.582 126.452 149.578 126.247 150.185 126.824Z" fill="#EDCCBE"/>
<path d="M142.683 153.445C142.174 140.19 157.814 141.228 160.854 149.054C162.856 154.207 163.035 162.792 162.807 172.969C162.668 179.224 163.52 190.509 163.702 199.034C163.885 207.559 155.979 212.129 152.392 202.133C148.806 192.135 142.683 153.445 142.683 153.445Z" fill="#DE9681"/>
<path d="M150.752 195.05C150.752 195.05 151.712 198.697 151.904 205.607C152.096 212.518 152.096 221.539 152.288 222.595C152.48 223.651 156.223 229.985 156.608 230.465C156.992 230.944 158.912 231.616 158.912 231.616C158.912 231.616 161.792 234.592 162.368 234.879C162.944 235.166 163.231 233.248 163.231 233.248C163.231 233.248 164.672 235.455 165.439 235.455C166.206 235.455 166.111 232.576 166.111 232.576C166.111 232.576 167.455 233.055 167.647 232C167.839 230.944 166.974 228.161 166.111 225.473C165.246 222.786 163.807 220.483 164 218.851C164.192 217.219 163.711 208.965 164.288 208.773C164.865 208.58 165.44 210.308 166.592 213.379C167.744 216.451 169.472 217.507 170.24 216.931C171.009 216.355 169.664 213.763 169.472 210.98C169.28 208.197 168.224 205.894 166.688 203.686C165.153 201.479 163.04 199.272 162.368 194.953C161.696 190.633 158.816 187.178 155.648 187.178C152.481 187.178 149.985 190.25 150.752 195.047V195.05Z" fill="#DE9681"/>
<path d="M160.256 218.084C160.598 219.327 160.673 220.663 161.303 221.803C163.059 225.322 164.772 228.87 166.112 232.576C164.727 230.337 163.537 227.997 162.406 225.626C161.247 223.24 160.065 220.81 160.258 218.084H160.256Z" fill="#C97565"/>
<path d="M157.088 219.33C157.288 220.24 157.454 221.253 157.6 222.175C157.645 222.303 157.709 222.428 157.769 222.552C159.607 225.984 161.718 229.669 163.231 233.247C160.943 229.937 158.923 226.445 157.311 222.754C157.249 222.588 157.174 222.409 157.151 222.23C157.111 221.296 157.07 220.261 157.088 219.33Z" fill="#C97565"/>
<path d="M154.208 220.578C154.446 221.402 154.501 222.297 154.869 223.066C156.434 225.807 157.859 228.632 158.912 231.615C157.133 228.999 155.703 226.175 154.421 223.29C154.114 222.426 154.202 221.478 154.208 220.578Z" fill="#C97565"/>
<path d="M419.554 175.904C419.554 175.904 405.26 172.648 398.784 184.118C392.309 195.589 390.083 274.602 390.93 282.844C391.779 291.086 408.101 294.359 413.57 281.866C419.039 269.374 434.828 210.574 435.518 201.95C436.206 193.326 433.653 180.532 419.553 175.904H419.554Z" fill="#F6AF9A"/>
<path d="M431.966 185.372L402.806 197.045C402.806 197.045 409.512 210.696 410.406 212.409C411.075 213.689 416.821 247.03 419.68 263.781C426.399 241.54 435.015 208.272 435.52 201.951C435.914 197.019 435.246 190.724 431.967 185.373L431.966 185.372Z" fill="#EA9A88"/>
<path d="M419.213 170.851C419.213 170.851 396.566 170.655 393.257 192.76C389.946 214.867 389.064 272.194 389.893 288.296C390.722 304.397 408.056 301.869 415.913 281.759C423.772 261.649 429.626 220.156 432.305 201.76C434.983 183.364 433.842 173.777 419.214 170.85L419.213 170.851Z" fill="#4F3E4F"/>
<path d="M418.966 272.616C423.735 256.251 427.581 233.307 430.179 216.188L413.249 198.13L411.573 207.515C411.573 207.515 404.7 202.654 402.018 197.962C402.018 197.962 408.053 214.555 408.892 218.074C409.569 220.918 416.38 258.364 418.966 272.616Z" fill="#423342"/>
<path d="M390.787 279.63C390.787 279.63 392.766 361.971 393.312 366.774C393.858 371.577 403.291 375.652 405.507 366.673C407.724 357.694 410.802 341.601 412.655 331.9C414.507 322.2 416.487 292.904 414.454 281.712C412.422 270.521 392.735 265.43 390.787 279.63Z" fill="#F6AF9A"/>
<path d="M393.138 363.818C393.138 363.818 393.675 368.674 388.709 370.404C383.744 372.133 369.005 373.106 367.336 377.773C365.667 382.44 373.928 383.345 378.484 383.667C383.04 383.989 388.377 382.535 394.226 383.108C400.073 383.682 407.092 384.057 408.36 380.5C409.627 376.944 405.117 369.721 406.055 361.627C406.994 353.533 393.606 353.969 393.138 363.818Z" fill="#F6AF9A"/>
<path d="M365.883 379.747C365.883 379.747 366.33 377.587 368.044 375.874C368.863 375.055 382.424 370.884 385.105 370.139C387.788 369.394 391.289 367.682 391.885 367.234C392.481 366.788 393.301 367.085 393.823 367.68C394.344 368.276 395.462 370.064 395.462 370.064C395.462 370.064 403.582 369.393 406.339 367.979C406.861 368.5 408.723 374.534 409.169 376.172C409.616 377.811 410.064 379.748 409.691 381.238C409.691 381.238 396.95 382.578 388.085 382.578C379.22 382.578 367.895 384.477 365.883 379.748V379.747Z" fill="#EDC4B2"/>
<path d="M372.626 377.711C372.616 377.711 372.606 377.711 372.596 377.71C369.559 377.33 368.716 376.365 368.683 376.324C368.599 376.224 368.613 376.075 368.711 375.991C368.81 375.907 368.958 375.92 369.042 376.018C369.058 376.036 369.852 376.891 372.654 377.241C372.784 377.258 372.875 377.376 372.859 377.505C372.844 377.625 372.742 377.713 372.625 377.713L372.626 377.711Z" fill="#E8B199"/>
<path d="M374.638 377.413C374.525 377.413 374.425 377.333 374.406 377.218C374.382 377.09 374.469 376.968 374.597 376.944C374.745 376.918 389.474 374.259 395.321 369.874C395.426 369.796 395.573 369.817 395.652 369.921C395.729 370.026 395.708 370.174 395.605 370.251C389.667 374.703 375.29 377.299 374.681 377.408C374.667 377.41 374.652 377.412 374.639 377.412L374.638 377.413Z" fill="#E8B199"/>
<path d="M365.883 379.747V381.013C365.883 381.013 365.995 382.838 370.167 383.657C374.339 384.477 394.94 383.471 399.856 383.471C404.396 383.471 408.492 383.09 409.504 382.915C409.612 382.896 409.691 382.801 409.691 382.69V381.237C409.691 381.237 373.29 382.35 371.135 382.131C367.484 381.758 365.882 379.747 365.882 379.747H365.883Z" fill="#AD7474"/>
<path d="M400.453 268.52C400.453 268.52 390.227 268.52 389.724 279.414C389.221 290.308 390.563 365.222 390.563 365.222C390.563 365.222 389.222 367.233 389.222 368.405C389.222 368.405 392.072 369.244 393.749 371.589C395.425 373.936 405.12 373.488 409.144 372.818C409.144 372.818 409.647 365.919 410.345 361.562C411.021 357.342 414.704 328.015 415.541 312.931C416.38 297.847 417.776 276.395 417.776 276.395C417.776 276.395 415.206 268.015 400.453 268.518V268.52Z" fill="#4F3E4F"/>
<path d="M396.076 157.174C396.076 157.174 396.622 168.455 396.802 175.212C396.981 181.968 395.242 198.363 413.008 208.704C429.025 218.027 444.991 209.688 448.163 205.336C453.02 198.675 453.737 189.014 451.875 179.119C450.012 169.225 445.66 159.391 447.097 143.116C448.533 126.842 394.151 127.332 396.076 157.174Z" fill="#F6AF9A"/>
<path d="M450.58 170.271C450.58 170.271 402.454 171.386 395.425 170.254C395.425 170.254 394.009 182.247 395.126 195.356C396.072 206.453 413.502 212.391 425.859 213.762C438.215 215.133 450.069 212.243 453.569 195.399C456.074 183.852 450.578 170.271 450.578 170.271H450.58Z" fill="#4F3E4F"/>
<path d="M428.09 213.961L413.249 198.13L411.573 207.515C411.573 207.515 404.7 202.654 402.018 197.962C402.018 197.962 403.791 202.836 405.548 207.86C411.679 211.111 419.451 213.05 425.859 213.762C426.605 213.844 427.349 213.911 428.09 213.961Z" fill="#423342"/>
<path d="M410.467 172.452C410.467 172.452 410.714 190.045 409.655 199.304C409.655 199.304 406.044 196.84 405.704 195.203C404.142 187.685 405.306 172.452 405.306 172.452H410.467Z" fill="#423342"/>
<path d="M451.471 172.798C450.958 171.209 450.58 170.271 450.58 170.271C450.58 170.271 402.454 171.386 395.425 170.254C395.425 170.254 395.295 171.358 395.145 173.258C399.929 173.794 424.537 176.225 451.471 172.798Z" fill="#142347"/>
<path d="M419.564 170.03H416.212V175.392H419.564V170.03Z" fill="#4F3E4F"/>
<path d="M401.087 170.03H397.735V175.392H401.087V170.03Z" fill="#4F3E4F"/>
<path d="M432.788 170.03H429.436V175.392H432.788V170.03Z" fill="#4F3E4F"/>
<path d="M446.012 170.03H442.66V175.392H446.012V170.03Z" fill="#4F3E4F"/>
<path d="M431.112 176.212C431.112 176.212 414.166 176.031 415.51 196.855C416.854 217.679 429.397 283.959 432.979 291.124C436.564 298.29 453.138 296.946 454.928 281.272C456.721 265.597 457.003 217.611 454.928 198.223C452.722 177.598 443.877 174.868 431.112 176.211V176.212Z" fill="#F6AF9A"/>
<path d="M434.018 175.394C434.018 175.394 453.762 170.254 456.381 194.134C459.099 218.901 458.231 272.025 458.589 280.77C458.947 289.514 454.354 298.075 443.122 298.442C431.889 298.811 429.128 286.509 425.629 272.134C422.13 257.759 414.665 214.8 412.746 198.969C410.828 183.137 418.393 177.389 434.017 175.394H434.018Z" fill="#4F3E4F"/>
<path d="M431.347 286.203C431.347 286.203 448.484 365.843 450.516 370.638C452.547 375.434 460.329 376.896 461.394 367.977C462.458 359.059 461.827 329.665 461.948 319.59C462.199 298.532 458.656 285.755 455.131 279.323C450.83 271.477 429.083 265.717 431.348 286.204L431.347 286.203Z" fill="#F6AF9A"/>
<path d="M449.241 366.207C449.241 366.207 450.002 372.635 444.44 373.96C438.877 375.285 424.818 378.927 422.9 381.757C420.983 384.587 426.062 387.051 430.949 387.713C435.837 388.375 446.656 387.057 454.06 386.933C461.464 386.81 463.63 385.485 464.292 383.53C465.452 380.107 461.062 373.571 461.394 367.98C461.938 358.815 449.331 356.231 449.241 366.208V366.207Z" fill="#F6AF9A"/>
<path d="M421.427 384.105C421.427 384.105 421.873 381.944 423.587 380.232C424.406 379.413 437.967 375.241 440.649 374.497C443.331 373.752 446.833 372.039 447.428 371.592C448.024 371.145 448.844 371.442 449.366 372.038C449.888 372.634 451.005 374.421 451.005 374.421C451.005 374.421 459.126 373.751 461.882 372.336C462.404 372.858 464.266 378.891 464.713 380.53C465.159 382.169 465.607 384.106 465.234 385.595C465.234 385.595 452.494 386.936 443.628 386.936C434.763 386.936 425.747 388.575 421.427 384.106V384.105Z" fill="#EDC4B2"/>
<path d="M429.176 382.106C429.166 382.106 429.156 382.106 429.146 382.105C426.157 381.731 424.369 380.778 424.294 380.737C424.179 380.676 424.138 380.532 424.199 380.418C424.261 380.303 424.405 380.26 424.519 380.323C424.536 380.333 426.309 381.275 429.204 381.637C429.334 381.653 429.425 381.772 429.409 381.901C429.394 382.021 429.292 382.108 429.175 382.108L429.176 382.106Z" fill="#E8B199"/>
<path d="M431.335 381.435C431.222 381.435 431.122 381.354 431.104 381.238C431.081 381.11 431.169 380.988 431.297 380.967C431.434 380.943 445.018 378.615 450.865 374.232C450.969 374.154 451.117 374.175 451.195 374.278C451.273 374.383 451.252 374.531 451.148 374.609C445.211 379.061 431.514 381.408 431.376 381.431C431.363 381.434 431.35 381.435 431.337 381.435H431.335Z" fill="#E8B199"/>
<path d="M421.427 384.105V385.371C421.427 385.371 422.321 387.159 426.493 387.978C430.666 388.797 450.483 387.829 455.401 387.829C459.753 387.829 463.698 387.478 464.908 387.295C465.096 387.266 465.236 387.104 465.236 386.912V385.594C465.236 385.594 429.319 386.634 427.164 386.413C423.513 386.041 421.428 384.104 421.428 384.104L421.427 384.105Z" fill="#AD7474"/>
<path d="M428.002 279.917L446.945 366.228C446.945 366.228 445.772 366.898 445.772 368.742C445.772 368.742 444.264 371.088 444.264 373.1C444.264 373.1 445.604 374.608 448.622 375.949C451.64 377.291 457.34 377.122 460.189 376.62C463.039 376.117 464.548 375.949 464.548 375.949C464.548 375.949 464.715 334.051 463.709 319.134C462.702 304.218 459.686 285.784 458.513 279.917C457.34 274.051 428.506 257.627 428.003 279.917H428.002Z" fill="#4F3E4F"/>
<path d="M408.416 94.1347C408.416 94.1347 397.899 86.825 389.672 100.521C381.446 114.216 372.367 141.399 369.797 149.847C367.228 158.295 377.112 162.779 383.227 156.333C389.342 149.886 404.532 120.636 408.008 113.44C411.482 106.243 413.605 98.2038 408.415 94.1347H408.416Z" fill="#F6AF9A"/>
<path d="M400.542 91.3479C400.542 91.3479 393.469 91.9632 389.059 100.162C384.651 108.362 370.81 137.162 368.556 148.334C366.3 159.506 375.424 161.556 380.346 159.506C385.267 157.456 396.543 138.699 404.438 122.812C412.332 106.925 418.586 91.1408 400.542 91.3467V91.3479Z" fill="#EDC4B2"/>
<path d="M404.438 122.813C408.125 115.395 411.452 107.999 412.116 102.243C404.023 99.6292 392.34 101.392 392.34 101.392C392.34 101.392 388.444 113.897 387.624 123.122C386.804 132.346 384.754 142.595 384.754 142.595L382.921 157.556C388.535 151.958 397.713 136.346 404.437 122.815L404.438 122.813Z" fill="#E8B199"/>
<path d="M380.448 144.234C378.397 139.974 374.402 136.929 372.67 135.752C371.687 138.256 370.815 140.626 370.111 142.757L380.448 144.233V144.234Z" fill="#E8B199"/>
<path d="M332.571 142.492C332.571 142.492 330.008 130.91 341.182 125.887L343.438 128.143L336.261 142.082L332.571 142.492Z" fill="#4F3E4F"/>
<path d="M381.452 157.988C378.798 160.201 375.049 160.548 371.971 158.974C363.62 154.705 336.031 140.429 329.288 134.71C321.315 127.948 327.058 124.353 334.852 127.472C342.645 130.589 355.145 135.043 360.957 137.077C370.416 140.389 379.115 142.228 383.092 145.943C385.876 148.544 385.426 154.674 381.451 157.989L381.452 157.988Z" fill="#F6AF9A"/>
<path d="M340.055 129.578C340.055 129.578 335.236 126.913 331.853 124.351C328.47 121.789 325.703 120.149 324.267 119.944C324.267 119.944 322.422 119.226 321.499 119.431C321.499 119.431 315.246 120.149 314.015 120.558C312.785 120.967 312.068 122.711 312.068 122.711C312.068 122.711 309.505 126.298 309.3 127.323C309.095 128.347 309.607 133.883 309.813 134.498C310.018 135.113 310.736 134.702 310.736 134.702C310.736 134.702 310.736 136.24 311.043 136.547C311.35 136.854 312.786 135.727 313.503 134.6C314.221 133.473 314.016 131.32 314.323 130.5C314.631 129.68 317.809 127.323 318.629 127.323C319.449 127.323 324.575 129.476 325.293 130.398C326.011 131.32 324.473 132.345 322.73 132.858C320.987 133.371 313.81 134.191 312.99 136.547C313.297 137.265 314.426 137.674 315.758 137.367C317.091 137.06 320.679 136.65 323.037 137.367C325.395 138.085 329.701 138.187 331.751 137.88C333.801 137.573 336.979 140.545 339.44 140.238C341.9 139.931 346.617 134.395 340.055 129.578Z" fill="#F6AF9A"/>
<path d="M310.736 134.703C310.745 133.026 310.723 131.319 310.753 129.642C311.134 128.044 311.997 126.603 312.737 125.147C312.804 125.022 312.901 124.89 313.031 124.815C314.633 124.017 316.43 123.734 318.168 123.41C318.35 123.399 318.534 123.451 318.717 123.468C319.194 123.564 319.775 123.557 320.197 123.742C319.57 123.87 318.862 123.824 318.207 123.861L318.271 123.855C316.655 124.393 314.992 124.774 313.402 125.344C313.32 125.378 313.331 125.381 313.264 125.475C312.473 126.823 311.592 128.213 311.13 129.711C310.949 131.292 311.05 133.336 310.737 134.703H310.736Z" fill="#E08C79"/>
<path d="M318.529 121.413C317.581 121.579 316.19 121.811 315.256 121.978C314.166 122.198 313.211 122.753 312.068 122.711C312.37 122.21 313.31 121.948 313.873 121.652C314 121.599 314.187 121.52 314.321 121.505C315.653 121.427 317.383 121.195 318.529 121.414V121.413Z" fill="#E08C79"/>
<path d="M314.204 170.807L313.739 172.2C313.581 172.672 312.913 172.672 312.755 172.2L312.29 170.807V155.159H314.204V170.807Z" fill="white"/>
<path d="M314.613 144.101H311.879C309.577 144.101 307.71 145.967 307.71 148.269V157.152C307.71 159.453 309.577 161.319 311.879 161.319H314.613C316.916 161.319 318.782 159.453 318.782 157.152V148.269C318.782 145.967 316.916 144.101 314.613 144.101Z" fill="#4F3E4F"/>
<path d="M313.247 159.308C313.056 159.308 312.9 159.153 312.9 158.962V146.457C312.9 146.266 313.056 146.111 313.247 146.111C313.438 146.111 313.593 146.266 313.593 146.457V158.962C313.593 159.153 313.438 159.308 313.247 159.308Z" fill="#423342"/>
<path d="M316.784 153.057H309.711C309.52 153.057 309.364 152.901 309.364 152.71C309.364 152.519 309.52 152.364 309.711 152.364H316.784C316.975 152.364 317.131 152.519 317.131 152.71C317.131 152.901 316.975 153.057 316.784 153.057Z" fill="#423342"/>
<path d="M313.195 144.376C310.8 144.376 308.851 142.428 308.851 140.033C308.851 137.638 310.8 135.69 313.195 135.69C315.59 135.69 317.539 137.638 317.539 140.033C317.539 142.428 315.59 144.376 313.195 144.376ZM313.195 136.381C311.181 136.381 309.543 138.018 309.543 140.032C309.543 142.045 311.181 143.683 313.195 143.683C315.209 143.683 316.847 142.045 316.847 140.032C316.847 138.018 315.209 136.381 313.195 136.381Z" fill="#423342"/>
<path d="M316.831 134.203C314.985 134.752 313.357 135.497 312.99 136.547C313.297 137.265 314.426 137.674 315.758 137.367C316.525 137.191 318.038 136.98 319.636 136.969L316.831 134.202V134.203Z" fill="#F6AF9A"/>
<path d="M341.184 125.889C341.184 125.889 340.774 133.986 332.572 142.493C332.572 142.493 364.968 162.48 376.041 161.147C387.114 159.814 386.088 148.438 384.755 146.08C383.422 143.722 341.184 125.889 341.184 125.889Z" fill="#EDC4B2"/>
<path d="M384.377 145.687L381.593 159.101C386.658 155.362 385.801 147.933 384.754 146.079C384.67 145.93 384.768 145.951 384.377 145.685V145.687Z" fill="#E8B199"/>
<path d="M435.905 86.1222C426.408 84.5291 418.832 85.8312 409.89 88.449C403.91 90.1999 397.5 91.8868 394.605 95.9349C389.521 103.041 391.839 120.59 393.138 128.714C394.437 136.837 395.422 153.825 396.134 158.187C396.846 162.55 416.211 169.402 428.065 167.618C437.154 166.25 445.471 161.797 446.654 153.476C448.049 143.661 450.423 129.591 453.177 121.041C455.931 112.493 460.258 94.6908 446.612 88.7338C444.054 87.6167 438.405 86.5414 435.905 86.121V86.1222Z" fill="#F6AF9A"/>
<path d="M415.498 76.7904C415.498 76.7904 415.384 85.661 413.228 89.6266C411.072 93.5921 417.676 96.4343 422.046 96.602C426.416 96.7709 433.241 94.6439 434.273 89.4182C435.306 84.1924 431.992 86.0309 433.277 71.7582C434.282 60.594 414.797 65.7113 415.498 76.7904Z" fill="#F6AF9A"/>
<path d="M413.923 87.9989C415.41 83.6474 415.498 76.7904 415.498 76.7904C414.941 67.9924 427.112 62.9554 431.646 66.8432C431.778 68.1009 430.299 69.5745 430.187 71.1552C430.129 71.9777 429.064 85.2553 413.923 87.9989Z" fill="#EA9A88"/>
<path d="M395.425 170.254C395.425 170.254 394.754 168.689 394.68 166.604C394.606 164.519 393.636 140.683 392.967 135.32C392.296 129.958 388.272 105.153 394.383 94.4269C395.426 93.2345 401.758 89.6599 414.126 87.2763C414.126 87.2763 414.052 88.4687 414.573 89.0643C415.094 89.6599 431.06 85.8361 433.742 84.1974C433.742 84.1974 442.363 86.3824 446.982 88.3183C446.982 88.3183 452.198 90.814 455.55 94.5009C456.555 96.4565 457.115 104.557 456.221 112.881C455.327 121.205 451.416 137.127 450.577 143.494C449.738 149.863 453.315 162.712 450.522 170.253C450.522 170.253 417.479 172.19 395.426 170.253L395.425 170.254Z" fill="white"/>
<path d="M436.073 84.8139C434.631 84.3811 433.742 84.1974 433.742 84.1974C431.059 85.8361 415.093 89.6599 414.573 89.0643C414.051 88.4687 414.126 87.2763 414.126 87.2763C413.151 87.465 412.217 87.6611 411.315 87.8621C411.119 88.174 409.113 91.3788 408.935 92.7524C408.935 92.7524 412.943 90.1432 414.062 90.0495C415.181 89.9558 416.439 95.8277 416.439 95.8277C416.439 95.8277 428.786 92.5341 436.073 84.8139Z" fill="#D7E2F7"/>
<path d="M414.227 95.8979C414.864 92.7154 415.944 90.3738 416.799 88.8954C415.526 89.1148 414.685 89.1925 414.572 89.063C414.37 88.8337 414.259 88.5168 414.197 88.2135C413.307 89.597 411.954 92.1716 411.209 95.8979C410.036 101.764 408.527 111.148 408.359 120.367C408.191 129.584 408.695 145.171 408.527 151.874C408.38 157.728 407.979 164.093 408.549 170.968C409.553 170.997 410.562 171.021 411.572 171.041C410.994 164.137 411.397 157.748 411.544 151.874C411.711 145.17 411.208 129.584 411.376 120.367C411.544 111.15 413.052 101.764 414.226 95.8979H414.227Z" fill="#D7E2F7"/>
<path d="M412.114 91.8572C412.114 91.8572 408.761 101.41 407.084 116.494C405.408 131.578 405.911 146.325 405.575 150.348L407.419 163.587C407.419 163.587 412.448 152.525 413.454 149.509C413.454 149.509 413.454 136.604 413.119 126.548C412.783 116.493 413.119 99.2309 414.459 93.0298L412.112 91.8572H412.114Z" fill="#4F3E4F"/>
<path d="M411.89 89.0631C411.89 89.0631 410.325 91.745 411.816 94.4257C413.184 96.8869 418.447 90.4774 418.447 90.4774L414.573 89.0618H411.89V89.0631Z" fill="#4F3E4F"/>
<path d="M398.656 46.5507C398.656 46.5507 397.409 53.2857 399.564 61.0996L403.561 46.1696L398.656 46.5507Z" fill="#7A3B3B"/>
<path d="M416.248 33.2508C416.248 33.2508 402.164 34.4148 400.183 47.0106C398.202 59.6064 400.166 82.259 408.418 84.5488C415.948 86.6376 427.301 78.6252 431.972 70.7422C436.888 62.4461 438.454 51.9823 435.26 44.1746C432.463 37.3384 427.322 32.3914 416.249 33.2508H416.248Z" fill="#F6AF9A"/>
<path d="M409.962 78.0814C409.9 78.0814 409.837 78.0629 409.781 78.0247C408.584 77.1899 407.417 77.8002 407.369 77.8261C407.214 77.9088 407.022 77.852 406.938 77.6979C406.854 77.5438 406.911 77.3526 407.064 77.2676C407.127 77.233 408.618 76.4377 410.145 77.5031C410.289 77.603 410.324 77.8015 410.224 77.9458C410.162 78.0345 410.064 78.0814 409.962 78.0814Z" fill="#EA9A88"/>
<path d="M412.839 61.1169C412.782 62.1194 413.346 62.9652 414.097 63.0084C414.849 63.0516 415.504 62.2735 415.562 61.271C415.619 60.2685 415.055 59.4214 414.304 59.3795C413.552 59.3363 412.897 60.1144 412.839 61.1169Z" fill="#192B4F"/>
<path d="M402.327 60.9566C402.27 61.9591 402.834 62.8062 403.585 62.8481C404.337 62.8912 404.992 62.1132 405.05 61.1107C405.107 60.1082 404.543 59.2611 403.792 59.2192C403.04 59.176 402.385 59.9541 402.327 60.9566Z" fill="#192B4F"/>
<path d="M413.275 73.7767C413.674 73.7891 413.816 74.3107 413.478 74.5215C412.503 75.1294 410.905 75.9173 409.103 75.9741C406.816 76.0456 405.376 74.9543 404.655 74.1948C404.409 73.9346 404.603 73.5055 404.962 73.5166L413.275 73.778V73.7767Z" fill="white"/>
<path d="M408.83 69.9283C409.169 69.9197 409.424 69.8988 409.491 69.8926C409.755 69.8679 409.95 69.6349 409.925 69.371C409.901 69.1071 409.668 68.9123 409.404 68.937C408.769 68.9949 407.578 69.0011 407.083 68.7717C407.06 68.7619 407.047 68.7532 407.037 68.7471C407.03 68.609 407.174 68.2095 407.302 67.8556L407.344 67.7397C409.436 61.9319 409.045 59.8961 409.026 59.7962C408.978 59.5348 408.728 59.3634 408.466 59.4103C408.206 59.4584 408.035 59.7062 408.08 59.9664C408.087 60.0071 408.415 61.9295 406.44 67.4129L406.398 67.5276C406.069 68.4388 405.784 69.2267 406.677 69.641C407.258 69.9111 408.194 69.9431 408.83 69.9283Z" fill="#E08C79"/>
<path d="M411.483 55.3313C411.483 55.3313 410.774 55.3165 410.788 55.7876C410.801 56.2586 410.958 57.2944 411.266 57.409C411.573 57.5225 415.214 57.2364 416.628 57.2007C418.04 57.1649 420.308 57.4201 420.411 57.2524C420.514 57.0847 419.596 56.2524 417.974 55.8911C416.595 55.5841 413.342 55.1242 411.484 55.3326L411.483 55.3313Z" fill="#7A3B3B"/>
<path d="M400.112 57.16C400.112 57.16 399.432 57.2192 399.37 56.7962C399.291 56.2549 401.487 55.3079 405.364 55.3597C406.502 55.4312 406.442 56.7753 406.183 57.4041C405.944 57.9849 404.242 56.9627 400.113 57.16H400.112Z" fill="#7A3B3B"/>
<path d="M411.907 66.9147C411.907 66.9147 412.586 65.3414 416.386 65.3611C419.474 65.3771 421.804 65.8075 421.808 67.731C422.052 70.2243 410.341 70.7866 411.907 66.9147Z" fill="#EA9A88"/>
<path d="M405.32 67.9863C405.144 69.1934 402.526 69.5856 400.485 69.7816C400.236 68.3328 400.035 66.8346 399.878 65.3155C402.461 65.4314 405.505 65.8876 405.32 67.9863Z" fill="#EA9A88"/>
<path d="M425.816 45.272C425.816 45.272 424.868 48.6617 424.918 50.7776C424.969 52.8936 424.795 55.9442 427.056 58.9541C429.316 61.9627 428.813 62.1551 429.537 65.5127C429.892 67.1589 430.312 71.5141 431.057 74.0369C431.831 76.6584 432.925 77.4229 432.955 77.7608C433.014 78.4217 434.122 76.053 435.528 71.4154C436.935 66.7791 439.944 57.7765 440.026 49.5803C440.107 41.3841 432.364 33.2817 424.612 32.6368C424.612 32.6368 417.17 29.4986 410.154 32.6121C403.137 35.7244 398.022 40.3299 398.498 47.6974L400.045 47.7122C400.045 47.7122 400.41 45.3028 400.782 45.0673C402.471 43.9995 404.45 43.7356 406.032 44.7146C406.032 44.7146 412.364 48.1204 415.577 47.6752C415.577 47.6752 422.11 47.9897 425.816 45.2732V45.272Z" fill="#7A3B3B"/>
<path d="M426.56 62.9492C426.56 62.9492 426.433 56.3425 430.372 56.2044C434.312 56.0662 434.424 61.5965 431.967 65.2452C430.592 67.2871 426.708 69.9111 426.56 62.9504V62.9492Z" fill="#F6AF9A"/>
<path d="M430.845 60.6483C430.07 60.71 429.468 61.1514 429.052 61.5928C429.144 60.832 429.439 60.091 430.145 59.6187C430.328 59.4966 430.376 59.2512 430.254 59.0687C430.133 58.8862 429.889 58.8369 429.704 58.959C427.184 60.6434 428.612 64.5781 428.674 64.7458C428.75 64.9505 428.978 65.0553 429.184 64.9788C429.188 64.9788 429.192 64.9764 429.196 64.9751C429.393 64.895 429.493 64.6718 429.419 64.4696C429.413 64.4548 429.17 63.7827 429.065 62.9208C429.07 62.9122 429.078 62.906 429.083 62.8974C429.091 62.8838 429.785 61.5312 430.909 61.4399C431.128 61.4214 431.29 61.2315 431.273 61.0133C431.255 60.795 431.064 60.6323 430.846 60.6495L430.845 60.6483Z" fill="#E08C79"/>
<path d="M434.117 83.5068C434.117 83.5068 432.887 91.8091 429.35 101.187C425.812 110.565 421.968 131.934 423.66 157.763C425.352 183.592 426.582 217.261 426.582 217.261C426.582 217.261 447.188 223.41 461.183 216.954C461.183 216.954 458.877 156.841 458.877 142.235C458.877 127.63 455.493 93.1913 454.725 91.5008C453.957 89.809 450.112 86.5809 445.652 85.6585C441.193 84.7362 434.119 83.5056 434.119 83.5056L434.117 83.5068Z" fill="#EDC4B2"/>
<path d="M438.884 119.124L427.607 121.789C427.607 121.789 427.442 118.845 425.287 117.998C423.606 128.62 422.654 142.403 423.66 157.763C424.168 165.513 424.633 173.968 425.038 182.008L456.21 177.237L457.543 175.084C457.543 175.084 457.449 169.643 459.507 169.173C459.149 157.674 458.875 147.261 458.875 142.235C458.875 132.986 457.519 115.785 456.328 103.982C448.163 102.724 438.884 102.724 438.884 102.724C438.884 102.724 437.038 110.513 438.884 119.123V119.124Z" fill="#E8B199"/>
<path d="M411.332 87.8349C411.332 87.8349 403.361 107.03 403.516 124.556C403.67 142.082 403.977 194.2 399.825 216.954C399.825 216.954 392.137 217.261 387.677 216.493C387.677 216.493 388.138 200.504 389.83 183.746C391.522 166.989 390.599 136.394 390.291 124.556C389.984 112.717 391.368 99.6489 393.52 94.5761C393.52 94.5761 398.073 89.5082 411.333 87.8349H411.332Z" fill="#EDC4B2"/>
<path d="M414.573 89.063C414.573 89.063 411.182 90.2554 408.947 91.8744C408.947 91.8744 410.456 89.0248 411.331 87.8337C411.331 87.8337 413.571 86.6758 414.391 86.3787C414.391 86.3787 414.089 87.4428 414.573 89.063Z" fill="white"/>
<path d="M414.573 89.0631C414.573 89.0631 416.51 91.7635 417.329 94.221C417.329 94.221 430.138 89.7869 436.731 83.9668C436.731 83.9668 435.552 82.6339 433.301 82.2097C433.301 82.2097 421.502 87.3491 414.573 89.0631Z" fill="white"/>
<path d="M461.618 105.608C459.15 98.0077 455.123 90.7326 448.561 91.3812C448.561 91.3812 436.858 93.7376 440.388 109.319C443.918 124.898 455.211 150.446 459.197 158.324C463.183 166.202 473.007 162.787 472.965 153.903C472.923 145.018 464.085 113.209 461.618 105.608Z" fill="#F6AF9A"/>
<path d="M449.957 89.195C449.957 89.195 434.271 92.8843 439.653 111.488C445.036 130.091 455.492 157.149 460.259 161.607C465.026 166.066 473.023 164.221 473.792 156.995C474.56 149.769 469.486 129.476 466.103 117.484C462.72 105.492 457.644 89.0421 449.956 89.195H449.957Z" fill="#EDC4B2"/>
<path d="M452.736 147.948L465.796 146.234C461.245 142.064 452.745 141.218 449.865 141.049C450.832 143.472 451.796 145.791 452.737 147.949L452.736 147.948Z" fill="#EBB39B"/>
<path d="M426.647 128.619L424.669 123.321C424.469 122.787 423.922 122.467 423.358 122.556L409.684 124.704C408.933 124.822 408.48 125.598 408.745 126.309L410.527 131.079L426.649 128.617L426.647 128.619Z" fill="#754E4E"/>
<path d="M408.745 126.309L410.527 131.079L425.662 128.768L423.746 123.32C423.618 122.976 423.346 122.722 423.018 122.607L409.684 124.702C408.933 124.821 408.48 125.596 408.745 126.308V126.309Z" fill="#825656"/>
<path d="M417.511 178.503L399.389 129.993C399.19 129.462 399.531 128.882 400.092 128.796L435.193 123.427L453.954 173.65L418.484 179.074C418.064 179.138 417.659 178.9 417.511 178.503Z" fill="#966363"/>
<path d="M435.193 123.429L436.26 123.215C436.532 123.161 436.803 123.311 436.9 123.57L455.307 172.443C455.411 172.719 455.285 173.03 455.017 173.154L453.954 173.65L435.193 123.427V123.429Z" fill="#825656"/>
<path d="M463.581 162.836C463.581 162.836 428.089 159.367 418.243 155.851C408.397 152.334 412.504 146.946 420.896 147.116C429.289 147.286 436.71 146.078 442.867 145.932C452.887 145.695 461.632 144.46 466.707 146.423C474.414 149.404 475.288 163.562 463.581 162.836Z" fill="#F6AF9A"/>
<path d="M422.96 146.626C422.96 146.626 419.542 144.918 417.766 143.483C415.989 142.048 414.417 141.023 411.888 140.818C409.358 140.614 406.83 139.725 406.625 140.272C406.42 140.818 406.557 142.322 408.333 142.869C410.11 143.415 411.477 143.348 412.502 144.304C413.527 145.261 414.005 147.447 416.671 148.609C419.336 149.771 423.232 148.2 422.958 146.627L422.96 146.626Z" fill="#F6AF9A"/>
<path d="M411.954 143.901C412.147 144.012 412.329 144.142 412.502 144.303C413.064 144.828 413.464 145.725 414.15 146.619C415.339 146.578 416.54 146.335 415.848 145.439C414.869 144.17 412.775 143.942 411.954 143.902V143.901Z" fill="#EBA08F"/>
<path d="M426.787 147.105C426.787 147.105 418.038 145.669 416.124 145.465C414.21 145.26 404.967 144.867 404.967 144.867L403.498 141.058C403.498 141.058 402.045 142.322 401.704 143.211C401.362 144.098 401.021 145.603 401.021 146.08C401.021 146.557 401.798 147.592 401.798 147.592C401.798 147.592 401.208 148.207 401.08 149.103C400.992 149.713 401.003 150.718 401.225 151.272C401.305 151.473 401.978 152.229 401.978 152.229C401.978 152.229 401.704 154.074 401.91 154.757C402.114 155.44 403.276 156.192 403.276 156.192C403.276 156.192 403.481 158.037 403.686 158.652C403.891 159.268 407.787 159.54 410.178 159.814C412.57 160.088 418.517 159.131 420.156 158.584C421.797 158.038 426.444 157.969 428.495 157.491C430.545 157.012 433.895 151.205 431.844 149.223C429.794 147.242 426.786 147.105 426.786 147.105H426.787Z" fill="#F6AF9A"/>
<path d="M415.848 145.438C414.403 145.311 410.731 145.128 408.051 145.004C408.196 145.393 408.566 146.45 408.675 147.377C408.812 148.539 407.787 149.154 407.718 149.632C407.65 150.111 408.47 150.657 408.47 151.614C408.47 152.571 407.718 152.912 408.196 153.869C408.675 154.826 408.949 155.168 408.333 155.988C407.718 156.808 407.922 157.081 408.47 158.174C408.804 158.843 408.602 159.231 408.629 159.65C409.178 159.707 409.707 159.76 410.178 159.814C412.21 160.046 416.8 159.391 419.145 158.855C419.181 157.072 419.916 152.489 419.644 150.282C419.504 149.139 419.182 148.14 418.903 147.441C418.637 146.772 418.104 146.245 417.434 145.98C416.904 145.769 416.272 145.536 415.848 145.439V145.438Z" fill="#EBA08F"/>
<path d="M401.798 147.592C402.414 147.864 403.279 148.378 403.935 148.508C404.67 148.62 405.726 148.636 406.212 149.19C404.637 149.784 402.639 148.708 401.798 147.593V147.592Z" fill="#E08C79"/>
<path d="M401.978 152.229C402.616 152.386 403.274 152.556 403.913 152.693C404.769 152.739 405.6 152.6 406.419 153.015C405.247 153.963 402.906 153.053 401.978 152.229Z" fill="#E08C79"/>
<path d="M403.276 156.192C403.601 156.25 404.349 156.361 404.664 156.407C405.426 156.562 406.117 156.252 406.891 156.568C406.491 157.303 405.25 157.185 404.541 156.85C404.249 156.679 403.502 156.438 403.276 156.192Z" fill="#E08C79"/>
<path d="M424.635 144.952C424.635 144.952 422.276 151.921 424.019 161.454C424.019 161.454 458.978 165.861 466.975 164.016C474.971 162.171 474.356 153.049 471.588 148.949C468.82 144.849 457.44 144.542 450.878 144.645C444.317 144.747 424.633 144.952 424.633 144.952H424.635Z" fill="#EDC4B2"/>
</g>
</svg>
