<svg width="138" height="64" viewBox="0 0 138 64" fill="none" xmlns="http://www.w3.org/2000/svg">
<g>
<path d="M11.9352 27.058C10.1864 27.058 8.58892 26.7518 7.1353 26.1357C5.68167 25.5233 4.4199 24.6489 3.34628 23.5162C2.27267 22.3836 1.44624 21.0369 0.867009 19.48C0.287773 17.9231 0 16.2112 0 14.3444C0 12.4775 0.30622 10.88 0.92235 9.33418C1.53479 7.78832 2.39073 6.44169 3.49017 5.29798C4.58961 4.15426 5.86983 3.26143 7.33453 2.62316C8.79922 1.9849 10.4041 1.66761 12.1529 1.66761C13.3556 1.66761 14.5252 1.8447 15.6578 2.19888C16.7905 2.55306 17.8235 3.04744 18.7569 3.68571C19.6903 4.32398 20.4762 5.05448 21.1107 5.8809L19.1996 7.8289C18.185 6.74422 17.0782 5.91042 15.8866 5.33118C14.6949 4.75195 13.4479 4.46417 12.1492 4.46417C10.8505 4.46417 9.59982 4.71136 8.46717 5.20943C7.33453 5.70381 6.34946 6.39004 5.50827 7.26443C4.67078 8.13881 4.01407 9.18291 3.54182 10.4004C3.06958 11.6179 2.83346 12.9313 2.83346 14.3481C2.83346 15.8349 3.06958 17.1889 3.54182 18.4027C4.01407 19.6202 4.67078 20.6569 5.50827 21.5203C6.34577 22.3836 7.34559 23.0477 8.50038 23.5199C9.65516 23.9922 10.9428 24.2283 12.3595 24.2283C13.2339 24.2283 14.0824 24.1176 14.9089 23.8925C15.7353 23.6675 16.5027 23.3428 17.211 22.9185C17.9194 22.4943 18.5687 21.9962 19.159 21.4317L20.6127 23.7339C20.0224 24.3722 19.266 24.944 18.3474 25.4532C17.425 25.9623 16.4178 26.3571 15.3184 26.6411C14.2189 26.9252 13.0937 27.0654 11.9352 27.0654V27.058Z" fill="#486DD0"/>
<path d="M25.1838 26.7039V0.494379H27.8771V26.7039H25.1838Z" fill="#486DD0"/>
<path d="M35.1342 3.75581C34.518 3.75581 34.0421 3.5861 33.699 3.24298C33.3559 2.89987 33.1862 2.44607 33.1862 1.8779C33.1862 1.30974 33.3559 0.855941 33.699 0.512827C34.0421 0.169712 34.518 0 35.1342 0C35.7503 0 36.2262 0.166023 36.5693 0.49438C36.9125 0.826425 37.0822 1.2876 37.0822 1.87421C37.0822 2.41656 36.9161 2.86666 36.5878 3.22085C36.2557 3.57503 35.7724 3.75212 35.1342 3.75212V3.75581ZM33.8244 26.7076V8.1093H36.5177V26.7039H33.8244V26.7076Z" fill="#486DD0"/>
<path d="M50.15 27.058C48.3791 27.058 46.8037 26.6338 45.4202 25.7815C44.0404 24.9329 42.952 23.7819 42.1625 22.3282C41.3692 20.8746 40.9745 19.2291 40.9745 17.3881C40.9745 15.5471 41.3692 13.9349 42.1625 12.4812C42.952 11.0276 44.0404 9.8839 45.4202 9.0464C46.8 8.20891 48.3791 7.78832 50.15 7.78832C51.7549 7.78832 53.2085 8.10192 54.5072 8.72543C55.8059 9.35262 56.8315 10.2196 57.5878 11.3301L56.0309 13.1711C55.6066 12.603 55.0864 12.1012 54.474 11.6659C53.8579 11.2305 53.1975 10.8874 52.4891 10.6402C51.7807 10.393 51.0724 10.2676 50.364 10.2676C49.0653 10.2676 47.9032 10.5738 46.8738 11.1899C45.8482 11.8061 45.0365 12.6473 44.4462 13.7209C43.8559 14.7945 43.5607 16.0194 43.5607 17.3881C43.5607 18.7569 43.8633 19.9855 44.4646 21.0702C45.066 22.1548 45.8851 23.0182 46.9255 23.6564C47.9659 24.2947 49.1207 24.612 50.3972 24.612C51.1056 24.612 51.7955 24.5013 52.4706 24.2762C53.1421 24.0512 53.7767 23.7265 54.367 23.3022C54.9573 22.878 55.5107 22.3577 56.0309 21.7453L57.5546 23.6232C56.7762 24.6378 55.7173 25.4642 54.3854 26.1025C53.0499 26.7408 51.6405 27.058 50.1537 27.058H50.15Z" fill="#486DD0"/>
<path d="M60.9194 26.7039V0.494379H63.6126V26.7039H60.9194ZM63.2916 20.7197L63.1846 17.6722L72.8546 8.1093H76.5366L63.2916 20.7197ZM73.5998 26.7039L65.948 17.8124L67.8591 16.0415L77.0679 26.7039H73.5961H73.5998Z" fill="#486DD0"/>
<path d="M95.3046 27.427C93.5558 27.427 91.9583 27.1208 90.5047 26.5046C89.051 25.8922 87.7893 25.0178 86.7157 23.8852C85.642 22.7525 84.8156 21.4059 84.2364 19.849C83.6571 18.292 83.3694 16.5802 83.3694 14.7133C83.3694 12.8465 83.6756 11.249 84.2917 9.70312C84.9042 8.15726 85.7601 6.81063 86.8595 5.66692C87.959 4.5232 89.2392 3.63037 90.7039 2.9921C92.1686 2.35384 93.7735 2.03655 95.5223 2.03655C96.725 2.03655 97.8945 2.21364 99.0272 2.56782C100.16 2.922 101.193 3.41638 102.126 4.05465C103.06 4.69292 103.846 5.42342 104.48 6.24984L102.569 8.19784C101.554 7.11316 100.448 6.27936 99.2559 5.70012C98.0642 5.12089 96.8172 4.83311 95.5186 4.83311C94.2199 4.83311 92.9692 5.0803 91.8365 5.57837C90.7039 6.07275 89.7188 6.75898 88.8776 7.63337C88.0401 8.50775 87.3834 9.55185 86.9112 10.7694C86.439 11.9869 86.2028 13.3003 86.2028 14.717C86.2028 16.2038 86.439 17.5578 86.9112 18.7717C87.3834 19.9892 88.0401 21.0259 88.8776 21.8892C89.7151 22.7525 90.715 23.4166 91.8697 23.8889C93.0245 24.3611 94.3121 24.5972 95.7289 24.5972C96.6032 24.5972 97.4518 24.4865 98.2782 24.2615C99.1047 24.0364 99.872 23.7118 100.58 23.2875C101.289 22.8632 101.938 22.3651 102.528 21.8007L103.982 24.1028C103.392 24.7411 102.635 25.313 101.717 25.8221C100.794 26.3312 99.7872 26.726 98.6878 27.0101C97.5883 27.2942 96.463 27.4344 95.3046 27.4344V27.427Z" fill="#486DD0"/>
<path d="M113.619 27.427C112.416 27.427 111.339 27.1909 110.394 26.7186C109.45 26.2464 108.701 25.5897 108.144 24.7522C107.59 23.9147 107.31 22.9296 107.31 21.7933C107.31 20.8709 107.48 20.0593 107.823 19.3509C108.166 18.6425 108.668 18.0522 109.328 17.58C109.988 17.1077 110.826 16.7462 111.844 16.499C112.859 16.2518 114.017 16.1264 115.316 16.1264H121.197L120.983 18.3584H114.962C114.135 18.3584 113.408 18.4285 112.785 18.5724C112.158 18.7126 111.626 18.934 111.191 19.2291C110.756 19.5243 110.424 19.8785 110.199 20.2917C109.974 20.7049 109.863 21.1956 109.863 21.7601C109.863 22.4205 110.033 23.0071 110.376 23.5125C110.719 24.0217 111.176 24.4091 111.756 24.6821C112.335 24.9551 112.988 25.0879 113.722 25.0879C114.689 25.0879 115.6 24.9182 116.449 24.5751C117.297 24.232 118.061 23.7597 118.732 23.1583C119.404 22.557 119.942 21.8781 120.345 21.1218L121.09 22.8226C120.57 23.7191 119.92 24.516 119.142 25.2133C118.363 25.9106 117.507 26.453 116.574 26.8441C115.641 27.2351 114.655 27.427 113.615 27.427H113.619ZM119.994 27.0728V14.6764C119.994 13.4737 119.57 12.5034 118.718 11.7729C117.869 11.0424 116.747 10.6734 115.353 10.6734C114.194 10.6734 113.143 10.9095 112.202 11.3818C111.258 11.854 110.42 12.5624 109.686 13.5069L107.915 11.736C108.977 10.5332 110.14 9.63302 111.405 9.04271C112.667 8.45241 114.043 8.15726 115.53 8.15726C117.017 8.15726 118.175 8.39338 119.212 8.86562C120.252 9.33786 121.049 10.0241 121.603 10.9206C122.156 11.8171 122.436 12.9055 122.436 14.1784V27.0691H119.994V27.0728Z" fill="#486DD0"/>
<path d="M127.181 27.0728V8.47823H129.874L129.911 13.8611L129.594 12.9387C129.83 12.0902 130.236 11.2969 130.815 10.5664C131.394 9.83593 132.095 9.24932 132.922 8.81397C133.748 8.37862 134.656 8.15726 135.648 8.15726C136.05 8.15726 136.427 8.18677 136.781 8.2458C137.135 8.30483 137.43 8.38231 137.666 8.47454L136.958 11.415C136.626 11.2969 136.29 11.1973 135.947 11.1125C135.604 11.0313 135.279 10.987 134.973 10.987C134.243 10.987 133.56 11.1346 132.936 11.4298C132.309 11.7249 131.774 12.1197 131.324 12.6177C130.874 13.1121 130.527 13.6729 130.28 14.3001C130.033 14.9273 129.907 15.5693 129.907 16.2297V27.0691H127.181V27.0728Z" fill="#486DD0"/>
<path d="M34.7431 55.8538V31.0611H45.7227C47.4457 31.0611 48.8919 31.3046 50.0615 31.7879C51.231 32.2712 52.1202 32.9685 52.7363 33.8761C53.3487 34.7837 53.6586 35.8905 53.6586 37.1891C53.6586 38.5837 53.3082 39.7496 52.6145 40.6941C51.9172 41.6386 50.9211 42.299 49.6224 42.679L49.5855 41.9337C50.6481 42.1957 51.5852 42.6236 52.4006 43.225C53.2159 43.8264 53.8468 44.5606 54.2969 45.4202C54.7433 46.2835 54.9684 47.2575 54.9684 48.3422C54.9684 49.5929 54.7507 50.6923 54.3117 51.6368C53.8726 52.5813 53.2602 53.3672 52.4707 53.9907C51.6774 54.6179 50.7477 55.0827 49.6741 55.389C48.6005 55.6952 47.4125 55.8501 46.1138 55.8501H34.7431V55.8538ZM40.4801 40.9782H44.9074C45.5198 40.9782 46.04 40.8785 46.4643 40.6756C46.8886 40.4764 47.2133 40.1923 47.4383 39.8271C47.6634 39.4618 47.7741 39.0302 47.7741 38.5358C47.7741 37.7794 47.5121 37.1891 46.9956 36.7649C46.4754 36.3406 45.6969 36.1266 44.6565 36.1266H40.4764V40.9782H40.4801ZM40.4801 50.7883H45.8629C46.8554 50.7883 47.6265 50.5521 48.1836 50.0799C48.737 49.6077 49.0174 48.9362 49.0174 48.0618C49.0174 47.5195 48.8809 47.0583 48.6115 46.682C48.3385 46.3056 47.9548 46.0216 47.4605 45.8334C46.9661 45.6452 46.3758 45.5493 45.6895 45.5493H40.4838V50.792L40.4801 50.7883Z" fill="#212D61"/>
<path d="M65.4131 56.208C64.0443 56.208 62.8637 55.9055 61.8712 55.3041C60.8788 54.7027 60.1188 53.8394 59.5875 52.7178C59.0562 51.5963 58.7906 50.2459 58.7906 48.6632V37.0453H64.4944V47.8109C64.4944 48.9694 64.7711 49.8696 65.3282 50.5189C65.8816 51.1683 66.6564 51.493 67.6488 51.493C68.1432 51.493 68.5933 51.4155 68.9955 51.2642C69.3976 51.1093 69.7444 50.8879 70.0396 50.5927C70.3347 50.2976 70.5635 49.9508 70.7295 49.5486C70.8955 49.1465 70.9767 48.7111 70.9767 48.2389V37.0453H76.6805V55.8538H71.3309L71.1169 51.9947L72.1425 51.5704C71.8806 52.4448 71.4157 53.2344 70.7442 53.9427C70.0728 54.6511 69.2759 55.2045 68.3535 55.6066C67.4312 56.0088 66.4535 56.208 65.4131 56.208Z" fill="#212D61"/>
<path d="M84.1847 64L88.4718 53.9427L88.5419 56.9164L79.4402 37.0453H85.8855L89.8516 46.5381C90.0656 46.9882 90.2648 47.4936 90.453 48.0618C90.6412 48.63 90.7851 49.1612 90.8773 49.6556L90.0619 50.1168C90.2021 49.7626 90.3645 49.3125 90.5416 48.7702C90.7186 48.2278 90.9142 47.6486 91.1245 47.0362L94.5962 37.049H101.078L93.1094 55.8575L89.8848 64.0037H84.181L84.1847 64Z" fill="#212D61"/>
<path d="M112.375 56.208C110.298 56.208 108.487 55.7948 106.937 54.9684C105.391 54.1419 104.2 53.0019 103.359 51.552C102.521 50.0983 102.1 48.4418 102.1 46.575C102.1 45.1103 102.337 43.771 102.809 42.5535C103.281 41.336 103.949 40.2919 104.808 39.4175C105.672 38.5431 106.686 37.8643 107.856 37.381C109.025 36.8977 110.306 36.6542 111.7 36.6542C113.095 36.6542 114.228 36.8903 115.312 37.3625C116.397 37.8348 117.341 38.4952 118.146 39.3474C118.946 40.196 119.562 41.1995 119.987 42.358C120.411 43.5165 120.61 44.7782 120.588 46.147L120.551 47.7039H105.605L104.757 44.4794H115.914L115.312 45.1177V44.4093C115.264 43.819 115.083 43.3062 114.762 42.8671C114.445 42.4318 114.032 42.0813 113.523 41.823C113.014 41.5648 112.442 41.4319 111.804 41.4319C110.859 41.4319 110.062 41.6164 109.413 41.9817C108.764 42.3469 108.273 42.8745 107.944 43.557C107.612 44.2433 107.45 45.0918 107.45 46.1064C107.45 47.121 107.668 48.0175 108.107 48.7997C108.542 49.5781 109.18 50.1795 110.018 50.6075C110.855 51.0318 111.855 51.2457 113.01 51.2457C113.788 51.2457 114.497 51.1277 115.135 50.8916C115.773 50.6554 116.456 50.2533 117.19 49.6888L119.846 53.4446C119.116 54.0608 118.334 54.5736 117.507 54.9868C116.681 55.4 115.836 55.7062 114.976 55.9091C114.113 56.1084 113.246 56.2117 112.372 56.2117L112.375 56.208Z" fill="#212D61"/>
<path d="M124.207 55.8538V37.0452H129.627L129.874 43.1733L128.812 41.9706C129.118 40.9781 129.59 40.0816 130.228 39.2773C130.867 38.4767 131.627 37.8385 132.512 37.3662C133.398 36.894 134.324 36.6579 135.294 36.6579C135.718 36.6579 136.113 36.6874 136.482 36.7464C136.847 36.8054 137.172 36.894 137.456 37.012L135.932 43.2803C135.674 43.1401 135.323 43.0147 134.888 42.9077C134.453 42.8007 133.995 42.7491 133.523 42.7491C133.003 42.7491 132.527 42.8376 132.088 43.0147C131.653 43.1918 131.273 43.4464 130.955 43.7747C130.638 44.1068 130.387 44.4941 130.21 44.9442C130.033 45.3944 129.944 45.8998 129.944 46.468V55.8538H124.207Z" fill="#212D61"/>
</g>
</svg>
